<svg width="512" height="512" version="1.1" xmlns="http://www.w3.org/2000/svg"><path fill="rgb(255,17,0)" stroke="rgb(255,17,0)" stroke-width="1" opacity="0.5529411764705883" d="M 233.5 0 L 245 0.5 L 233.5 1 L 233.5 0 Z "></path><path fill="rgb(255,17,0)" stroke="rgb(255,17,0)" stroke-width="1" opacity="0.5529411764705883" d="M 266.5 0 L 279 0.5 L 266.5 1 L 266.5 0 Z "></path><path fill="rgb(255,17,0)" stroke="rgb(255,17,0)" stroke-width="1" opacity="0.5529411764705883" d="M 224.5 1 L 231 1.5 L 224.5 2 L 224.5 1 Z "></path><path fill="rgb(255,17,0)" stroke="rgb(255,17,0)" stroke-width="1" opacity="0.5529411764705883" d="M 281.5 1 L 288 1.5 L 281.5 2 L 281.5 1 Z "></path><path fill="rgb(255,17,0)" stroke="rgb(255,17,0)" stroke-width="1" opacity="0.5529411764705883" d="M 216.5 2 L 222 2.5 L 216.5 3 L 216.5 2 Z "></path><path fill="rgb(255,17,0)" stroke="rgb(255,17,0)" stroke-width="1" opacity="0.5529411764705883" d="M 290.5 2 L 295 2.5 L 290.5 3 L 290.5 2 Z "></path><path fill="rgb(255,17,0)" stroke="rgb(255,17,0)" stroke-width="1" opacity="0.5529411764705883" d="M 210.5 3 L 215 3.5 L 205.5 5 L 205.5 4 L 210.5 3 Z "></path><path fill="rgb(255,17,0)" stroke="rgb(255,17,0)" stroke-width="1" opacity="0.5529411764705883" d="M 297.5 3 L 307 4.5 L 302.5 5 L 297.5 4 L 297.5 3 Z "></path><path fill="rgb(255,17,0)" stroke="rgb(255,17,0)" stroke-width="1" opacity="0.5529411764705883" d="M 200.5 5 L 204 5.5 L 196.5 7 L 196.5 6 L 200.5 5 Z "></path><path fill="rgb(255,17,0)" stroke="rgb(255,17,0)" stroke-width="1" opacity="0.5529411764705883" d="M 308.5 5 L 311 5.5 L 308.5 6 L 308.5 5 Z "></path><path fill="rgb(255,17,0)" stroke="rgb(255,17,0)" stroke-width="1" opacity="0.5529411764705883" d="M 312.5 6 L 316 6.5 L 312.5 7 L 312.5 6 Z "></path><path fill="rgb(255,17,0)" stroke="rgb(255,17,0)" stroke-width="1" opacity="0.5529411764705883" d="M 192.5 7 L 195 7.5 L 192.5 8 L 192.5 7 Z "></path><path fill="rgb(255,17,0)" stroke="rgb(255,17,0)" stroke-width="1" opacity="0.5529411764705883" d="M 317.5 7 L 327 9.5 L 324.5 10 L 317.5 8 L 317.5 7 Z "></path><path fill="rgb(255,17,0)" stroke="rgb(255,17,0)" stroke-width="1" opacity="0.5529411764705883" d="M 188.5 8 L 191 8.5 L 175.5 13 L 175.5 12 L 188.5 8 Z "></path><path fill="rgb(255,17,0)" stroke="rgb(255,17,0)" stroke-width="1" opacity="0.5529411764705883" d="M 328.5 10 L 355.5 19 L 390.5 37 Q 423.8 57.7 449 86.5 Q 475.5 116 492 155.5 L 491 155.5 Q 467.9 101.1 426.5 65 Q 404.8 45.7 378.5 31 Q 356.1 18.4 328.5 11 L 328.5 10 Z "></path><path fill="rgb(255,17,0)" stroke="rgb(255,17,0)" stroke-width="1" opacity="0.5529411764705883" d="M 172.5 13 L 174 13.5 L 164.5 17 L 164.5 16 L 172.5 13 Z "></path><path fill="rgb(255,17,0)" stroke="rgb(255,17,0)" stroke-width="1" opacity="0.5529411764705883" d="M 161.5 17 L 163 17.5 L 152.5 22 L 152.5 21 L 161.5 17 Z "></path><path fill="rgb(255,17,0)" stroke="rgb(255,17,0)" stroke-width="1" opacity="0.5529411764705883" d="M 149.5 22 L 151 22.5 Q 99.2 46.2 64 86.5 Q 38.9 114.4 22.5 151 L 22 149.5 L 42 113.5 L 56 94.5 L 74 75.5 L 74 74 L 106.5 47 Q 126.3 32.8 149.5 22 Z "></path><path fill="rgb(255,17,0)" stroke="rgb(255,17,0)" stroke-width="1" opacity="0.5529411764705883" d="M 21.5 152 L 22 153.5 L 19.5 158 L 19 156.5 L 21.5 152 Z "></path><path fill="rgb(255,17,0)" stroke="rgb(255,17,0)" stroke-width="1" opacity="0.5529411764705883" d="M 492.5 157 L 494 160.5 L 493 160.5 L 492.5 157 Z "></path><path fill="rgb(255,17,0)" stroke="rgb(255,17,0)" stroke-width="1" opacity="0.5529411764705883" d="M 18.5 159 L 19 160.5 L 17.5 163 L 17 161.5 L 18.5 159 Z "></path><path fill="rgb(255,17,0)" stroke="rgb(255,17,0)" stroke-width="1" opacity="0.5529411764705883" d="M 494.5 162 L 497 168.5 L 496 168.5 L 494.5 162 Z "></path><path fill="rgb(255,17,0)" stroke="rgb(255,17,0)" stroke-width="1" opacity="0.5529411764705883" d="M 16.5 164 L 17 165.5 L 13.5 174 L 13 172.5 L 16.5 164 Z "></path><path fill="rgb(255,17,0)" stroke="rgb(255,17,0)" stroke-width="1" opacity="0.5529411764705883" d="M 497.5 170 L 501 180.5 L 500 180.5 L 497.5 170 Z "></path><path fill="rgb(255,17,0)" stroke="rgb(255,17,0)" stroke-width="1" opacity="0.5529411764705883" d="M 12.5 175 L 13 177.5 L 8.5 191 L 8 188.5 L 12.5 175 Z "></path><path fill="rgb(255,17,0)" stroke="rgb(255,17,0)" stroke-width="1" opacity="0.5529411764705883" d="M 501.5 182 L 503 187.5 L 502 187.5 L 501.5 182 Z "></path><path fill="rgb(255,17,0)" stroke="rgb(255,17,0)" stroke-width="1" opacity="0.5529411764705883" d="M 503.5 189 L 504 191.5 L 503 191.5 L 503.5 189 Z "></path><path fill="rgb(255,17,0)" stroke="rgb(255,17,0)" stroke-width="1" opacity="0.5529411764705883" d="M 7.5 192 L 8 194.5 L 7 194.5 L 7.5 192 Z "></path><path fill="rgb(255,17,0)" stroke="rgb(255,17,0)" stroke-width="1" opacity="0.5529411764705883" d="M 504.5 193 L 505 195.5 L 504 195.5 L 504.5 193 Z "></path><path fill="rgb(255,17,0)" stroke="rgb(255,17,0)" stroke-width="1" opacity="0.5529411764705883" d="M 6.5 196 L 7 199.5 L 5.5 204 L 5 200.5 L 6.5 196 Z "></path><path fill="rgb(255,17,0)" stroke="rgb(255,17,0)" stroke-width="1" opacity="0.5529411764705883" d="M 505.5 197 L 507 204.5 L 506 204.5 L 505.5 197 Z "></path><path fill="rgb(255,17,0)" stroke="rgb(255,17,0)" stroke-width="1" opacity="0.5529411764705883" d="M 4.5 205 L 5 208.5 L 4 208.5 L 4.5 205 Z "></path><path fill="rgb(255,17,0)" stroke="rgb(255,17,0)" stroke-width="1" opacity="0.5529411764705883" d="M 507.5 206 L 508 209.5 L 507 209.5 L 507.5 206 Z "></path><path fill="rgb(255,17,0)" stroke="rgb(255,17,0)" stroke-width="1" opacity="0.5529411764705883" d="M 3.5 210 L 4 214.5 L 3 214.5 L 3.5 210 Z "></path><path fill="rgb(255,17,0)" stroke="rgb(255,17,0)" stroke-width="1" opacity="0.5529411764705883" d="M 508.5 211 L 509 215.5 L 508 215.5 L 508.5 211 Z "></path><path fill="rgb(255,17,0)" stroke="rgb(255,17,0)" stroke-width="1" opacity="0.5529411764705883" d="M 2.5 216 L 3 221.5 L 2 221.5 L 2.5 216 Z "></path><path fill="rgb(255,17,0)" stroke="rgb(255,17,0)" stroke-width="1" opacity="0.5529411764705883" d="M 509.5 218 L 510 223.5 L 509 223.5 L 509.5 218 Z "></path><path fill="rgb(255,17,0)" stroke="rgb(255,17,0)" stroke-width="1" opacity="0.5529411764705883" d="M 1.5 223 L 2 230.5 L 1 230.5 L 1.5 223 Z "></path><path fill="rgb(255,17,0)" stroke="rgb(255,17,0)" stroke-width="1" opacity="0.5529411764705883" d="M 510.5 225 L 511 232.5 L 510 232.5 L 510.5 225 Z "></path><path fill="rgb(255,17,0)" stroke="rgb(255,17,0)" stroke-width="1" opacity="0.5529411764705883" d="M 0.5 233 L 1 245.5 L 0 245.5 L 0.5 233 Z "></path><path fill="rgb(255,17,0)" stroke="rgb(255,17,0)" stroke-width="1" opacity="0.5529411764705883" d="M 511.5 235 L 512 253.5 L 511 253.5 L 511.5 235 Z "></path><path fill="rgb(255,17,0)" stroke="rgb(255,17,0)" stroke-width="1" opacity="0.5529411764705883" d="M 511.5 258 L 512 276.5 L 511 276.5 L 511.5 258 Z "></path><path fill="rgb(255,17,0)" stroke="rgb(255,17,0)" stroke-width="1" opacity="0.5529411764705883" d="M 0.5 266 L 1 278.5 L 0 278.5 L 0.5 266 Z "></path><path fill="rgb(255,17,0)" stroke="rgb(255,17,0)" stroke-width="1" opacity="0.5529411764705883" d="M 510.5 279 L 511 286.5 L 510 286.5 L 510.5 279 Z "></path><path fill="rgb(255,17,0)" stroke="rgb(255,17,0)" stroke-width="1" opacity="0.5529411764705883" d="M 1.5 281 L 2 287.5 L 1 287.5 L 1.5 281 Z "></path><path fill="rgb(255,17,0)" stroke="rgb(255,17,0)" stroke-width="1" opacity="0.5529411764705883" d="M 509.5 288 L 510 293.5 L 509 293.5 L 509.5 288 Z "></path><path fill="rgb(255,17,0)" stroke="rgb(255,17,0)" stroke-width="1" opacity="0.5529411764705883" d="M 2.5 290 L 3 295.5 L 2 295.5 L 2.5 290 Z "></path><path fill="rgb(255,17,0)" stroke="rgb(255,17,0)" stroke-width="1" opacity="0.5529411764705883" d="M 508.5 295 L 509 299.5 L 508 299.5 L 508.5 295 Z "></path><path fill="rgb(255,17,0)" stroke="rgb(255,17,0)" stroke-width="1" opacity="0.5529411764705883" d="M 3.5 297 L 5 306.5 L 4 306.5 L 3.5 297 Z "></path><path fill="rgb(255,17,0)" stroke="rgb(255,17,0)" stroke-width="1" opacity="0.5529411764705883" d="M 507.5 301 L 508 305.5 L 507 305.5 L 507.5 301 Z "></path><path fill="rgb(255,17,0)" stroke="rgb(255,17,0)" stroke-width="1" opacity="0.5529411764705883" d="M 506.5 307 L 507 310.5 L 505.5 315 L 505 311.5 L 506.5 307 Z "></path><path fill="rgb(255,17,0)" stroke="rgb(255,17,0)" stroke-width="1" opacity="0.5529411764705883" d="M 5.5 308 L 10 326.5 L 9 326.5 L 5 311.5 L 5.5 308 Z "></path><path fill="rgb(255,17,0)" stroke="rgb(255,17,0)" stroke-width="1" opacity="0.5529411764705883" d="M 504.5 316 L 505 318.5 L 504 318.5 L 504.5 316 Z "></path><path fill="rgb(255,17,0)" stroke="rgb(255,17,0)" stroke-width="1" opacity="0.5529411764705883" d="M 503.5 320 L 504 322.5 L 500.5 333 L 500 330.5 L 503.5 320 Z "></path><path fill="rgb(255,17,0)" stroke="rgb(255,17,0)" stroke-width="1" opacity="0.5529411764705883" d="M 10.5 328 Q 15.6 347.4 24 363.5 L 23 363.5 Q 14 347.4 10.5 328 Z "></path><path fill="rgb(255,17,0)" stroke="rgb(255,17,0)" stroke-width="1" opacity="0.5529411764705883" d="M 497.5 340 L 498 341.5 L 491.5 357 L 491 355.5 L 497.5 340 Z "></path><path fill="rgb(255,17,0)" stroke="rgb(255,17,0)" stroke-width="1" opacity="0.5529411764705883" d="M 490.5 358 L 491 359.5 Q 467.5 411.5 427.5 447 Q 398.1 474.1 358.5 491 L 358.5 490 Q 409.3 467.8 444 429.5 Q 472.8 399.3 490.5 358 Z "></path><path fill="rgb(255,17,0)" stroke="rgb(255,17,0)" stroke-width="1" opacity="0.5529411764705883" d="M 24.5 365 Q 47.3 412.7 84.5 446 Q 110.8 470.2 145 486.5 L 143.5 487 Q 96 463.5 63 425.5 L 37 390.5 L 24 366.5 L 24.5 365 Z "></path><path fill="rgb(255,17,0)" stroke="rgb(255,17,0)" stroke-width="1" opacity="0.5529411764705883" d="M 146.5 487 L 156 491.5 L 154.5 492 L 146.5 488 L 146.5 487 Z "></path><path fill="rgb(255,17,0)" stroke="rgb(255,17,0)" stroke-width="1" opacity="0.5529411764705883" d="M 355.5 491 L 357 491.5 L 340.5 498 L 340.5 497 L 355.5 491 Z "></path><path fill="rgb(255,17,0)" stroke="rgb(255,17,0)" stroke-width="1" opacity="0.5529411764705883" d="M 157.5 492 L 161 493.5 L 159.5 494 L 157.5 492 Z "></path><path fill="rgb(255,17,0)" stroke="rgb(255,17,0)" stroke-width="1" opacity="0.5529411764705883" d="M 162.5 494 L 169 496.5 L 167.5 497 L 162.5 495 L 162.5 494 Z "></path><path fill="rgb(255,17,0)" stroke="rgb(255,17,0)" stroke-width="1" opacity="0.5529411764705883" d="M 170.5 497 L 175 498.5 L 172.5 499 L 170.5 497 Z "></path><path fill="rgb(255,17,0)" stroke="rgb(255,17,0)" stroke-width="1" opacity="0.5529411764705883" d="M 330.5 500 L 333 500.5 L 320.5 504 L 320.5 503 L 330.5 500 Z "></path><path fill="rgb(255,17,0)" stroke="rgb(255,17,0)" stroke-width="1" opacity="0.5529411764705883" d="M 182.5 501 L 188 502.5 L 185.5 503 L 182.5 502 L 182.5 501 Z "></path><path fill="rgb(255,17,0)" stroke="rgb(255,17,0)" stroke-width="1" opacity="0.5529411764705883" d="M 189.5 503 L 192 503.5 L 189.5 504 L 189.5 503 Z "></path><path fill="rgb(255,17,0)" stroke="rgb(255,17,0)" stroke-width="1" opacity="0.5529411764705883" d="M 193.5 504 L 196 504.5 L 193.5 505 L 193.5 504 Z "></path><path fill="rgb(255,17,0)" stroke="rgb(255,17,0)" stroke-width="1" opacity="0.5529411764705883" d="M 316.5 504 L 319 504.5 L 316.5 505 L 316.5 504 Z "></path><path fill="rgb(255,17,0)" stroke="rgb(255,17,0)" stroke-width="1" opacity="0.5529411764705883" d="M 197.5 505 L 205 506.5 L 201.5 507 L 197.5 506 L 197.5 505 Z "></path><path fill="rgb(255,17,0)" stroke="rgb(255,17,0)" stroke-width="1" opacity="0.5529411764705883" d="M 311.5 505 L 315 505.5 L 307.5 507 L 307.5 506 L 311.5 505 Z "></path><path fill="rgb(255,17,0)" stroke="rgb(255,17,0)" stroke-width="1" opacity="0.5529411764705883" d="M 206.5 507 L 210 507.5 L 206.5 508 L 206.5 507 Z "></path><path fill="rgb(255,17,0)" stroke="rgb(255,17,0)" stroke-width="1" opacity="0.5529411764705883" d="M 301.5 507 L 306 507.5 L 301.5 508 L 301.5 507 Z "></path><path fill="rgb(255,17,0)" stroke="rgb(255,17,0)" stroke-width="1" opacity="0.5529411764705883" d="M 212.5 508 L 216 508.5 L 212.5 509 L 212.5 508 Z "></path><path fill="rgb(255,17,0)" stroke="rgb(255,17,0)" stroke-width="1" opacity="0.5529411764705883" d="M 295.5 508 L 300 508.5 L 295.5 509 L 295.5 508 Z "></path><path fill="rgb(255,17,0)" stroke="rgb(255,17,0)" stroke-width="1" opacity="0.5529411764705883" d="M 218.5 509 L 224 509.5 L 218.5 510 L 218.5 509 Z "></path><path fill="rgb(255,17,0)" stroke="rgb(255,17,0)" stroke-width="1" opacity="0.5529411764705883" d="M 288.5 509 L 294 509.5 L 288.5 510 L 288.5 509 Z "></path><path fill="rgb(255,17,0)" stroke="rgb(255,17,0)" stroke-width="1" opacity="0.5529411764705883" d="M 225.5 510 L 233 510.5 L 225.5 511 L 225.5 510 Z "></path><path fill="rgb(255,17,0)" stroke="rgb(255,17,0)" stroke-width="1" opacity="0.5529411764705883" d="M 279.5 510 L 286 510.5 L 279.5 511 L 279.5 510 Z "></path><path fill="rgb(255,17,0)" stroke="rgb(255,17,0)" stroke-width="1" opacity="0.5529411764705883" d="M 235.5 511 L 253 511.5 L 235.5 512 L 235.5 511 Z "></path><path fill="rgb(255,17,0)" stroke="rgb(255,17,0)" stroke-width="1" opacity="0.5529411764705883" d="M 259.5 511 L 276 511.5 L 259.5 512 L 259.5 511 Z "></path><path fill="rgb(255,17,0)" stroke="rgb(255,17,0)" stroke-width="1" opacity="1" d="M 245.5 0 L 265.5 0 L 266.5 1 L 280.5 1 L 281.5 2 L 296.5 3 L 327.5 10 L 355.5 20 Q 409.5 43.5 446 84.5 Q 475.8 117.2 494 161.5 L 501 181.5 L 508 210.5 L 510 232.5 L 511 233.5 L 511 253.5 L 512 257.5 L 511 258.5 L 511 278.5 L 510 279.5 L 510 287.5 L 509 288.5 L 507 306.5 L 500 333.5 L 491 357.5 Q 468.1 408.6 429.5 444 Q 395.3 476.3 347.5 495 L 306.5 507 L 288.5 509 L 287.5 510 L 279.5 510 L 278.5 511 L 259.5 511 Q 258.3 513.3 253.5 512 L 252.5 511 L 233.5 511 L 232.5 510 L 224.5 510 L 223.5 509 L 205.5 507 L 181.5 501 L 156.5 492 Q 102.5 468.5 66 427.5 Q 34.2 393.3 16 345.5 L 10 327.5 L 3 296.5 L 2 281.5 L 1 280.5 L 1 266.5 L 0 265.5 L 0 246.5 L 1 245.5 L 2 222.5 L 7 195.5 L 13 174.5 L 22 151.5 Q 46 99.5 86.5 64 Q 119.2 34.7 163.5 17 L 204.5 5 L 209.5 5 L 222.5 2 L 230.5 2 L 231.5 1 L 244.5 1 L 245.5 0 Z M 127 133 L 125 134 L 122 137 L 122 157 Q 113 156 108 159 Q 100 163 98 173 L 98 211 L 96 212 L 92 217 L 92 241 L 93 242 L 92 244 L 92 266 L 93 267 L 92 270 L 92 293 L 93 294 L 92 296 L 92 319 L 94 323 L 98 324 L 98 342 L 100 347 L 108 354 L 120 358 L 169 366 L 180 369 L 191 370 L 197 372 L 202 372 L 208 374 L 213 374 L 219 376 L 230 377 L 236 379 L 276 379 L 333 368 L 338 368 L 344 366 L 349 366 L 355 364 L 360 364 L 366 362 L 371 362 L 377 360 L 382 360 L 388 358 L 393 358 L 406 353 Q 412 349 414 342 L 414 325 L 416 324 L 420 319 L 420 297 L 419 296 L 420 292 L 420 272 L 419 271 L 420 266 L 420 246 L 419 245 L 420 240 L 420 217 L 418 214 L 416 212 L 414 211 L 414 173 L 411 166 Q 407 159 400 157 L 392 157 L 391 158 L 390 137 L 386 133 L 361 133 L 360 134 L 339 135 L 306 142 Q 289 147 277 155 Q 265 162 257 173 Q 258 175 256 174 L 254 172 L 236 155 Q 223 147 207 142 L 181 136 L 166 135 L 165 134 L 127 133 Z "></path><path fill="rgb(255,17,0)" stroke="rgb(255,17,0)" stroke-width="1" opacity="1" d="M 138.5 142 L 141.5 143 L 170.5 144 L 200.5 150 L 227.5 161 Q 239.1 167.5 247 177.5 L 246.5 179 L 237.5 179 L 187.5 169 L 132.5 160 L 131 158.5 L 131 143 L 137.5 143 L 138.5 142 Z "></path><path fill="rgb(255,17,0)" stroke="rgb(255,17,0)" stroke-width="1" opacity="1" d="M 371.5 142 L 381 143 L 381 158.5 L 379.5 159 L 317.5 171 L 312.5 171 L 306.5 173 L 301.5 173 L 274.5 179 L 265 179 L 265 177.5 L 275.5 167 L 296.5 155 L 311.5 150 L 341.5 144 L 370.5 143 L 371.5 142 Z "></path><path fill="rgb(255,17,0)" stroke="rgb(255,17,0)" stroke-width="1" opacity="1" d="M 114.5 166 L 169.5 175 L 186.5 179 L 197.5 180 L 233 187 L 232.5 369 L 204.5 363 L 193.5 362 L 176.5 358 L 121.5 349 L 112.5 346 L 108 341.5 L 107 339.5 L 107 325 L 123 325 L 123 330.5 L 128.5 334 L 139.5 335 L 150.5 338 L 161.5 339 L 167.5 341 L 172.5 341 L 213.5 349 L 217 345.5 L 217 202.5 L 212.5 199 L 126.5 184 L 123 186.5 L 123 211 L 107 211 L 107 173.5 L 112.5 167 L 114.5 166 Z "></path><path fill="rgb(255,17,0)" stroke="rgb(255,17,0)" stroke-width="1" opacity="1" d="M 393.5 166 Q 401.4 165.1 403 170.5 L 405 174.5 L 405 211 L 389 211 L 389 186.5 Q 387.6 183.4 382.5 184 L 343.5 192 L 299.5 199 L 295 202.5 L 295 345.5 L 298.5 349 L 383.5 334 L 389 330.5 L 389 325 L 405 325 L 405 339.5 L 399.5 346 L 390.5 349 L 357.5 354 L 351.5 356 L 346.5 356 L 296.5 366 L 285.5 367 L 279.5 369 L 279 187 L 393.5 166 Z "></path><path fill="rgb(255,17,0)" stroke="rgb(255,17,0)" stroke-width="1" opacity="1" d="M 242 188 L 269.5 188 L 270 188.5 L 270 370 L 242.5 370 L 242 369.5 L 242 188 Z "></path><path fill="rgb(255,17,0)" stroke="rgb(255,17,0)" stroke-width="1" opacity="1" d="M 132.5 194 L 208 208 L 207.5 339 L 132 325 L 132 321.5 L 138 313.5 L 139 303.5 L 136 296 L 142 292.5 Q 147.3 287.8 146 276.5 L 144 272.5 L 149.5 272 L 159 265.5 Q 163.7 260.7 162 249.5 L 155.5 240 L 148 236.5 L 150 226.5 Q 148.5 218 142.5 214 L 132 211 L 132.5 194 Z "></path><path fill="rgb(255,17,0)" stroke="rgb(255,17,0)" stroke-width="1" opacity="1" d="M 378.5 194 L 380 194.5 L 380 211 Q 369.6 211.5 365 218.5 Q 361.1 222.6 362 231.5 L 364 236.5 L 356.5 240 L 352 244.5 Q 348.6 249.6 350 259.5 L 356.5 269 Q 360.4 272.6 368 272.5 Q 364.7 276.2 366 284.5 L 372.5 295 L 376 296 L 373 303.5 L 373 310.5 Q 375 317.5 380 321.5 L 380 325 L 304.5 339 L 304 208 L 345.5 200 L 367.5 197 L 378.5 194 Z "></path><path fill="rgb(255,17,0)" stroke="rgb(255,17,0)" stroke-width="1" opacity="1" d="M 101 220 L 134.5 220 L 139 223.5 L 140 231.5 L 136.5 236 L 134.5 237 L 101 237 L 101 220 Z "></path><path fill="rgb(255,17,0)" stroke="rgb(255,17,0)" stroke-width="1" opacity="1" d="M 377.5 220 L 411 220 L 411 237 L 377.5 237 L 372 232.5 Q 370 223 375.5 221 L 377.5 220 Z "></path><path fill="rgb(255,17,0)" stroke="rgb(255,17,0)" stroke-width="1" opacity="1" d="M 101 246 L 146.5 246 L 151 248 Q 153.7 250.6 153 257.5 L 149.5 262 L 147.5 263 L 101 263 L 101 246 Z "></path><path fill="rgb(255,17,0)" stroke="rgb(255,17,0)" stroke-width="1" opacity="1" d="M 366.5 246 L 411 246 L 411 263 L 364.5 263 L 360 259.5 L 359 251.5 L 361 248 L 366.5 246 Z "></path><path fill="rgb(255,17,0)" stroke="rgb(255,17,0)" stroke-width="1" opacity="1" d="M 101 272 L 129.5 272 L 136 276.5 L 137 282.5 L 133.5 288 L 131.5 289 L 101 289 L 101 272 Z "></path><path fill="rgb(255,17,0)" stroke="rgb(255,17,0)" stroke-width="1" opacity="1" d="M 382.5 272 L 411 272 L 411 289 L 380.5 289 L 376 285.5 L 375 279.5 L 379.5 273 L 382.5 272 Z "></path><path fill="rgb(255,17,0)" stroke="rgb(255,17,0)" stroke-width="1" opacity="1" d="M 102.5 298 L 121.5 298 L 125.5 299 L 128 301.5 L 129 310.5 L 126.5 314 L 124.5 315 L 101 315 L 101 299.5 L 102.5 298 Z "></path><path fill="rgb(255,17,0)" stroke="rgb(255,17,0)" stroke-width="1" opacity="1" d="M 394.5 298 L 409.5 298 L 411 299.5 L 411 315 L 387.5 315 L 384 312.5 L 382 305.5 L 385.5 300 L 394.5 298 Z "></path><path fill="rgb(0,0,0)" stroke="rgb(0,0,0)" stroke-width="1" opacity="0" d="M 0 0 L 233 0.5 L 210.5 3 L 184.5 9 L 149.5 22 Q 126.3 32.8 106.5 47 L 74 74 L 74 75.5 L 56 94.5 L 42 113.5 L 22 149.5 L 9 184.5 L 3 210.5 L 0.5 233 L 0 0 Z "></path><path fill="rgb(0,0,0)" stroke="rgb(0,0,0)" stroke-width="1" opacity="0" d="M 279.5 0 L 512 0 L 512 234.5 L 511 234.5 L 511 225.5 L 510 224.5 L 509 211.5 L 503 185.5 L 488 145.5 Q 464.3 96.7 425.5 63 Q 395.4 36.1 355.5 19 L 323.5 8 L 301.5 3 L 279.5 1 L 279.5 0 Z "></path><path fill="rgb(0,0,0)" stroke="rgb(0,0,0)" stroke-width="1" opacity="0" d="M 511.5 277 L 512 512 L 276 511.5 L 310.5 507 L 326.5 503 L 359.5 491 Q 411.5 467.5 447 427.5 Q 473.8 398.3 491 359.5 L 503 326.5 L 507 310.5 L 511.5 277 Z "></path><path fill="rgb(0,0,0)" stroke="rgb(0,0,0)" stroke-width="1" opacity="0" d="M 0.5 279 L 3 301.5 L 10 330.5 Q 17.6 355.4 29 376.5 Q 51.8 418.7 86.5 449 Q 116 475 154.5 492 L 172.5 499 L 201.5 507 L 235 511.5 L 0 512 L 0.5 279 Z "></path><path fill="rgb(255,204,200)" stroke="rgb(255,204,200)" stroke-width="1" opacity="1" d="M 126.5 133 L 151 133.5 L 126.5 134 L 126.5 133 Z "></path><path fill="rgb(255,204,200)" stroke="rgb(255,204,200)" stroke-width="1" opacity="1" d="M 360.5 133 L 386 133.5 L 360.5 134 L 360.5 133 Z "></path><path fill="rgb(255,204,200)" stroke="rgb(255,204,200)" stroke-width="1" opacity="1" d="M 159.5 134 L 165 134.5 L 159.5 135 L 159.5 134 Z "></path><path fill="rgb(255,204,200)" stroke="rgb(255,204,200)" stroke-width="1" opacity="1" d="M 347.5 134 L 353 134.5 L 347.5 135 L 347.5 134 Z "></path><path fill="rgb(255,204,200)" stroke="rgb(255,204,200)" stroke-width="1" opacity="1" d="M 170.5 135 L 173 135.5 L 170.5 136 L 170.5 135 Z "></path><path fill="rgb(255,204,200)" stroke="rgb(255,204,200)" stroke-width="1" opacity="1" d="M 338.5 135 L 342 135.5 L 338.5 136 L 338.5 135 Z "></path><path fill="rgb(255,204,200)" stroke="rgb(255,204,200)" stroke-width="1" opacity="1" d="M 177.5 136 L 181 136.5 L 177.5 137 L 177.5 136 Z "></path><path fill="rgb(255,204,200)" stroke="rgb(255,204,200)" stroke-width="1" opacity="1" d="M 331.5 136 L 335 136.5 L 331.5 137 L 331.5 136 Z "></path><path fill="rgb(255,204,200)" stroke="rgb(255,204,200)" stroke-width="1" opacity="1" d="M 183.5 137 L 186 137.5 L 183.5 138 L 183.5 137 Z "></path><path fill="rgb(255,204,200)" stroke="rgb(255,204,200)" stroke-width="1" opacity="1" d="M 326.5 137 L 329 137.5 L 326.5 138 L 326.5 137 Z "></path><path fill="rgb(255,204,200)" stroke="rgb(255,204,200)" stroke-width="1" opacity="1" d="M 130 142 L 138 142.5 L 131 143 L 131 158.5 L 132 159.5 L 130 158.5 L 130 142 Z "></path><path fill="rgb(255,204,200)" stroke="rgb(255,204,200)" stroke-width="1" opacity="1" d="M 141.5 142 L 154 142.5 L 141.5 143 L 141.5 142 Z "></path><path fill="rgb(255,204,200)" stroke="rgb(255,204,200)" stroke-width="1" opacity="1" d="M 358.5 142 L 371 142.5 L 358.5 143 L 358.5 142 Z "></path><path fill="rgb(255,204,200)" stroke="rgb(255,204,200)" stroke-width="1" opacity="1" d="M 374.5 142 L 381 142.5 L 374.5 143 L 374.5 142 Z "></path><path fill="rgb(255,204,200)" stroke="rgb(255,204,200)" stroke-width="1" opacity="1" d="M 161.5 143 L 166 143.5 L 161.5 144 L 161.5 143 Z "></path><path fill="rgb(255,204,200)" stroke="rgb(255,204,200)" stroke-width="1" opacity="1" d="M 346.5 143 L 351 143.5 L 346.5 144 L 346.5 143 Z "></path><path fill="rgb(255,204,200)" stroke="rgb(255,204,200)" stroke-width="1" opacity="1" d="M 171.5 144 L 174 144.5 L 171.5 145 L 171.5 144 Z "></path><path fill="rgb(255,204,200)" stroke="rgb(255,204,200)" stroke-width="1" opacity="1" d="M 338.5 144 L 341 144.5 L 338.5 145 L 338.5 144 Z "></path><path fill="rgb(255,204,200)" stroke="rgb(255,204,200)" stroke-width="1" opacity="1" d="M 178.5 145 L 181 145.5 L 178.5 146 L 178.5 145 Z "></path><path fill="rgb(255,204,200)" stroke="rgb(255,204,200)" stroke-width="1" opacity="1" d="M 331.5 145 L 334 145.5 L 331.5 146 L 331.5 145 Z "></path><path fill="rgb(255,204,200)" stroke="rgb(255,204,200)" stroke-width="1" opacity="1" d="M 230.5 152 L 231.5 154 L 230.5 152 Z "></path><path fill="rgb(255,204,200)" stroke="rgb(255,204,200)" stroke-width="1" opacity="1" d="M 235.5 155 L 236.5 157 L 235.5 155 Z "></path><path fill="rgb(255,204,200)" stroke="rgb(255,204,200)" stroke-width="1" opacity="1" d="M 276.5 155 L 275.5 157 L 276.5 155 Z "></path><path fill="rgb(255,204,200)" stroke="rgb(255,204,200)" stroke-width="1" opacity="1" d="M 118.5 157 L 122 157.5 L 118.5 158 L 118.5 157 Z "></path><path fill="rgb(255,204,200)" stroke="rgb(255,204,200)" stroke-width="1" opacity="1" d="M 238.5 157 L 239.5 159 L 238.5 157 Z "></path><path fill="rgb(255,204,200)" stroke="rgb(255,204,200)" stroke-width="1" opacity="1" d="M 273.5 157 L 272.5 159 L 273.5 157 Z "></path><path fill="rgb(255,204,200)" stroke="rgb(255,204,200)" stroke-width="1" opacity="1" d="M 391.5 157 L 394 157.5 L 391.5 158 L 391.5 157 Z "></path><path fill="rgb(255,204,200)" stroke="rgb(255,204,200)" stroke-width="1" opacity="1" d="M 107.5 159 L 106.5 161 L 107.5 159 Z "></path><path fill="rgb(255,204,200)" stroke="rgb(255,204,200)" stroke-width="1" opacity="1" d="M 270.5 159 L 267.5 163 L 270.5 159 Z "></path><path fill="rgb(255,204,200)" stroke="rgb(255,204,200)" stroke-width="1" opacity="1" d="M 404.5 159 L 405.5 161 L 404.5 159 Z "></path><path fill="rgb(255,204,200)" stroke="rgb(255,204,200)" stroke-width="1" opacity="1" d="M 135.5 160 L 138 160.5 L 135.5 161 L 135.5 160 Z "></path><path fill="rgb(255,204,200)" stroke="rgb(255,204,200)" stroke-width="1" opacity="1" d="M 242.5 160 L 245.5 164 L 242.5 160 Z "></path><path fill="rgb(255,204,200)" stroke="rgb(255,204,200)" stroke-width="1" opacity="1" d="M 373.5 160 L 376 160.5 L 373.5 161 L 373.5 160 Z "></path><path fill="rgb(255,204,200)" stroke="rgb(255,204,200)" stroke-width="1" opacity="1" d="M 228.5 161 L 229.5 163 L 228.5 161 Z "></path><path fill="rgb(255,204,200)" stroke="rgb(255,204,200)" stroke-width="1" opacity="1" d="M 283.5 161 L 282.5 163 L 283.5 161 Z "></path><path fill="rgb(255,204,200)" stroke="rgb(255,204,200)" stroke-width="1" opacity="1" d="M 367.5 161 L 370 161.5 L 367.5 162 L 367.5 161 Z "></path><path fill="rgb(255,204,200)" stroke="rgb(255,204,200)" stroke-width="1" opacity="1" d="M 146.5 162 L 149 162.5 L 146.5 163 L 146.5 162 Z "></path><path fill="rgb(255,204,200)" stroke="rgb(255,204,200)" stroke-width="1" opacity="1" d="M 362.5 162 L 365 162.5 L 362.5 163 L 362.5 162 Z "></path><path fill="rgb(255,204,200)" stroke="rgb(255,204,200)" stroke-width="1" opacity="1" d="M 356.5 163 L 359 163.5 L 356.5 164 L 356.5 163 Z "></path><path fill="rgb(255,204,200)" stroke="rgb(255,204,200)" stroke-width="1" opacity="1" d="M 102.5 164 L 101.5 166 L 102.5 164 Z "></path><path fill="rgb(255,204,200)" stroke="rgb(255,204,200)" stroke-width="1" opacity="1" d="M 157.5 164 L 160 164.5 L 157.5 165 L 157.5 164 Z "></path><path fill="rgb(255,204,200)" stroke="rgb(255,204,200)" stroke-width="1" opacity="1" d="M 351.5 164 L 354 164.5 L 351.5 165 L 351.5 164 Z "></path><path fill="rgb(255,204,200)" stroke="rgb(255,204,200)" stroke-width="1" opacity="1" d="M 409.5 164 L 410.5 166 L 409.5 164 Z "></path><path fill="rgb(255,204,200)" stroke="rgb(255,204,200)" stroke-width="1" opacity="1" d="M 234.5 165 L 235.5 167 L 234.5 165 Z "></path><path fill="rgb(255,204,200)" stroke="rgb(255,204,200)" stroke-width="1" opacity="1" d="M 277.5 165 L 276.5 167 L 277.5 165 Z "></path><path fill="rgb(255,204,200)" stroke="rgb(255,204,200)" stroke-width="1" opacity="1" d="M 345.5 165 L 348 165.5 L 345.5 166 L 345.5 165 Z "></path><path fill="rgb(255,204,200)" stroke="rgb(255,204,200)" stroke-width="1" opacity="1" d="M 119.5 166 L 122 166.5 L 119.5 167 L 119.5 166 Z "></path><path fill="rgb(255,204,200)" stroke="rgb(255,204,200)" stroke-width="1" opacity="1" d="M 168.5 166 L 171 166.5 L 168.5 167 L 168.5 166 Z "></path><path fill="rgb(255,204,200)" stroke="rgb(255,204,200)" stroke-width="1" opacity="1" d="M 390.5 166 L 393 166.5 L 390.5 167 L 390.5 166 Z "></path><path fill="rgb(255,204,200)" stroke="rgb(255,204,200)" stroke-width="1" opacity="1" d="M 111.5 167 L 108.5 171 L 111.5 167 Z "></path><path fill="rgb(255,204,200)" stroke="rgb(255,204,200)" stroke-width="1" opacity="1" d="M 125.5 167 L 128 167.5 L 125.5 168 L 125.5 167 Z "></path><path fill="rgb(255,204,200)" stroke="rgb(255,204,200)" stroke-width="1" opacity="1" d="M 334.5 167 L 337 167.5 L 334.5 168 L 334.5 167 Z "></path><path fill="rgb(255,204,200)" stroke="rgb(255,204,200)" stroke-width="1" opacity="1" d="M 384.5 167 L 387 167.5 L 384.5 168 L 384.5 167 Z "></path><path fill="rgb(255,204,200)" stroke="rgb(255,204,200)" stroke-width="1" opacity="1" d="M 400.5 167 L 402.5 170 L 400.5 167 Z "></path><path fill="rgb(255,204,200)" stroke="rgb(255,204,200)" stroke-width="1" opacity="1" d="M 238.5 168 L 246.5 177 L 238.5 168 Z "></path><path fill="rgb(255,204,200)" stroke="rgb(255,204,200)" stroke-width="1" opacity="1" d="M 273.5 168 L 265.5 177 L 273.5 168 Z "></path><path fill="rgb(255,204,200)" stroke="rgb(255,204,200)" stroke-width="1" opacity="1" d="M 379.5 168 L 382 168.5 L 379.5 169 L 379.5 168 Z "></path><path fill="rgb(255,204,200)" stroke="rgb(255,204,200)" stroke-width="1" opacity="1" d="M 136.5 169 L 139 169.5 L 136.5 170 L 136.5 169 Z "></path><path fill="rgb(255,204,200)" stroke="rgb(255,204,200)" stroke-width="1" opacity="1" d="M 185.5 169 L 188 169.5 L 185.5 170 L 185.5 169 Z "></path><path fill="rgb(255,204,200)" stroke="rgb(255,204,200)" stroke-width="1" opacity="1" d="M 251.5 169 L 253.5 172 L 251.5 169 Z "></path><path fill="rgb(255,204,200)" stroke="rgb(255,204,200)" stroke-width="1" opacity="1" d="M 323.5 169 L 326 169.5 L 323.5 170 L 323.5 169 Z "></path><path fill="rgb(255,204,200)" stroke="rgb(255,204,200)" stroke-width="1" opacity="1" d="M 373.5 169 L 376 169.5 L 373.5 170 L 373.5 169 Z "></path><path fill="rgb(255,204,200)" stroke="rgb(255,204,200)" stroke-width="1" opacity="1" d="M 190.5 170 L 193 170.5 L 190.5 171 L 190.5 170 Z "></path><path fill="rgb(255,204,200)" stroke="rgb(255,204,200)" stroke-width="1" opacity="1" d="M 147.5 171 L 150 171.5 L 147.5 172 L 147.5 171 Z "></path><path fill="rgb(255,204,200)" stroke="rgb(255,204,200)" stroke-width="1" opacity="1" d="M 196.5 171 L 199 171.5 L 196.5 172 L 196.5 171 Z "></path><path fill="rgb(255,204,200)" stroke="rgb(255,204,200)" stroke-width="1" opacity="1" d="M 258.5 171 L 257.5 173 L 258.5 171 Z "></path><path fill="rgb(255,204,200)" stroke="rgb(255,204,200)" stroke-width="1" opacity="1" d="M 312.5 171 L 315 171.5 L 312.5 172 L 312.5 171 Z "></path><path fill="rgb(255,204,200)" stroke="rgb(255,204,200)" stroke-width="1" opacity="1" d="M 362.5 171 L 365 171.5 L 362.5 172 L 362.5 171 Z "></path><path fill="rgb(255,204,200)" stroke="rgb(255,204,200)" stroke-width="1" opacity="1" d="M 403.5 171 L 405 173.5 L 404 173.5 L 403.5 171 Z "></path><path fill="rgb(255,204,200)" stroke="rgb(255,204,200)" stroke-width="1" opacity="1" d="M 153.5 172 L 156 172.5 L 153.5 173 L 153.5 172 Z "></path><path fill="rgb(255,204,200)" stroke="rgb(255,204,200)" stroke-width="1" opacity="1" d="M 201.5 172 L 204 172.5 L 201.5 173 L 201.5 172 Z "></path><path fill="rgb(255,204,200)" stroke="rgb(255,204,200)" stroke-width="1" opacity="1" d="M 307.5 172 L 310 172.5 L 307.5 173 L 307.5 172 Z "></path><path fill="rgb(255,204,200)" stroke="rgb(255,204,200)" stroke-width="1" opacity="1" d="M 356.5 172 L 359 172.5 L 356.5 173 L 356.5 172 Z "></path><path fill="rgb(255,204,200)" stroke="rgb(255,204,200)" stroke-width="1" opacity="1" d="M 158.5 173 L 161 173.5 L 158.5 174 L 158.5 173 Z "></path><path fill="rgb(255,204,200)" stroke="rgb(255,204,200)" stroke-width="1" opacity="1" d="M 207.5 173 L 210 173.5 L 207.5 174 L 207.5 173 Z "></path><path fill="rgb(255,204,200)" stroke="rgb(255,204,200)" stroke-width="1" opacity="1" d="M 301.5 173 L 304 173.5 L 301.5 174 L 301.5 173 Z "></path><path fill="rgb(255,204,200)" stroke="rgb(255,204,200)" stroke-width="1" opacity="1" d="M 351.5 173 L 354 173.5 L 351.5 174 L 351.5 173 Z "></path><path fill="rgb(255,204,200)" stroke="rgb(255,204,200)" stroke-width="1" opacity="1" d="M 164.5 174 L 167 174.5 L 164.5 175 L 164.5 174 Z "></path><path fill="rgb(255,204,200)" stroke="rgb(255,204,200)" stroke-width="1" opacity="1" d="M 212.5 174 L 215 174.5 L 212.5 175 L 212.5 174 Z "></path><path fill="rgb(255,204,200)" stroke="rgb(255,204,200)" stroke-width="1" opacity="1" d="M 296.5 174 L 299 174.5 L 296.5 175 L 296.5 174 Z "></path><path fill="rgb(255,204,200)" stroke="rgb(255,204,200)" stroke-width="1" opacity="1" d="M 345.5 174 L 348 174.5 L 345.5 175 L 345.5 174 Z "></path><path fill="rgb(255,204,200)" stroke="rgb(255,204,200)" stroke-width="1" opacity="1" d="M 106.5 175 L 107 210.5 L 106 210.5 L 106.5 175 Z "></path><path fill="rgb(255,204,200)" stroke="rgb(255,204,200)" stroke-width="1" opacity="1" d="M 218.5 175 L 221 175.5 L 218.5 176 L 218.5 175 Z "></path><path fill="rgb(255,204,200)" stroke="rgb(255,204,200)" stroke-width="1" opacity="1" d="M 175.5 176 L 178 176.5 L 175.5 177 L 175.5 176 Z "></path><path fill="rgb(255,204,200)" stroke="rgb(255,204,200)" stroke-width="1" opacity="1" d="M 334.5 176 L 337 176.5 L 334.5 177 L 334.5 176 Z "></path><path fill="rgb(255,204,200)" stroke="rgb(255,204,200)" stroke-width="1" opacity="1" d="M 405.5 176 L 406 210.5 L 405 210.5 L 405.5 176 Z "></path><path fill="rgb(255,204,200)" stroke="rgb(255,204,200)" stroke-width="1" opacity="1" d="M 229.5 177 L 232 177.5 L 229.5 178 L 229.5 177 Z "></path><path fill="rgb(255,204,200)" stroke="rgb(255,204,200)" stroke-width="1" opacity="1" d="M 280.5 177 L 283 177.5 L 280.5 178 L 280.5 177 Z "></path><path fill="rgb(255,204,200)" stroke="rgb(255,204,200)" stroke-width="1" opacity="1" d="M 328.5 177 L 331 177.5 L 328.5 178 L 328.5 177 Z "></path><path fill="rgb(255,204,200)" stroke="rgb(255,204,200)" stroke-width="1" opacity="1" d="M 186.5 178 L 189 178.5 L 186.5 179 L 186.5 178 Z "></path><path fill="rgb(255,204,200)" stroke="rgb(255,204,200)" stroke-width="1" opacity="1" d="M 323.5 178 L 326 178.5 L 323.5 179 L 323.5 178 Z "></path><path fill="rgb(255,204,200)" stroke="rgb(255,204,200)" stroke-width="1" opacity="1" d="M 192.5 179 L 195 179.5 L 192.5 180 L 192.5 179 Z "></path><path fill="rgb(255,204,200)" stroke="rgb(255,204,200)" stroke-width="1" opacity="1" d="M 312.5 180 L 315 180.5 L 312.5 181 L 312.5 180 Z "></path><path fill="rgb(255,204,200)" stroke="rgb(255,204,200)" stroke-width="1" opacity="1" d="M 203.5 181 L 206 181.5 L 203.5 182 L 203.5 181 Z "></path><path fill="rgb(255,204,200)" stroke="rgb(255,204,200)" stroke-width="1" opacity="1" d="M 306.5 181 L 309 181.5 L 306.5 182 L 306.5 181 Z "></path><path fill="rgb(255,204,200)" stroke="rgb(255,204,200)" stroke-width="1" opacity="1" d="M 301.5 182 L 304 182.5 L 301.5 183 L 301.5 182 Z "></path><path fill="rgb(255,204,200)" stroke="rgb(255,204,200)" stroke-width="1" opacity="1" d="M 214.5 183 L 217 183.5 L 214.5 184 L 214.5 183 Z "></path><path fill="rgb(255,204,200)" stroke="rgb(255,204,200)" stroke-width="1" opacity="1" d="M 295.5 183 L 298 183.5 L 295.5 184 L 295.5 183 Z "></path><path fill="rgb(255,204,200)" stroke="rgb(255,204,200)" stroke-width="1" opacity="1" d="M 126.5 184 L 130 184.5 L 126.5 185 L 126.5 184 Z "></path><path fill="rgb(255,204,200)" stroke="rgb(255,204,200)" stroke-width="1" opacity="1" d="M 289.5 184 L 292 184.5 L 289.5 185 L 289.5 184 Z "></path><path fill="rgb(255,204,200)" stroke="rgb(255,204,200)" stroke-width="1" opacity="1" d="M 382.5 184 L 386 184.5 L 382.5 185 L 382.5 184 Z "></path><path fill="rgb(255,204,200)" stroke="rgb(255,204,200)" stroke-width="1" opacity="1" d="M 124.5 185 L 123.5 187 L 124.5 185 Z "></path><path fill="rgb(255,204,200)" stroke="rgb(255,204,200)" stroke-width="1" opacity="1" d="M 225.5 185 L 228 185.5 L 225.5 186 L 225.5 185 Z "></path><path fill="rgb(255,204,200)" stroke="rgb(255,204,200)" stroke-width="1" opacity="1" d="M 284.5 185 L 287 185.5 L 284.5 186 L 284.5 185 Z "></path><path fill="rgb(255,204,200)" stroke="rgb(255,204,200)" stroke-width="1" opacity="1" d="M 387.5 185 L 388.5 187 L 387.5 185 Z "></path><path fill="rgb(255,204,200)" stroke="rgb(255,204,200)" stroke-width="1" opacity="1" d="M 138.5 186 L 141 186.5 L 138.5 187 L 138.5 186 Z "></path><path fill="rgb(255,204,200)" stroke="rgb(255,204,200)" stroke-width="1" opacity="1" d="M 279.5 186 L 281 186.5 L 279 187 L 278.5 369 L 278 187.5 L 279.5 186 Z "></path><path fill="rgb(255,204,200)" stroke="rgb(255,204,200)" stroke-width="1" opacity="1" d="M 371.5 186 L 374 186.5 L 371.5 187 L 371.5 186 Z "></path><path fill="rgb(255,204,200)" stroke="rgb(255,204,200)" stroke-width="1" opacity="1" d="M 242.5 187 L 270 187.5 L 242.5 188 L 242.5 187 Z "></path><path fill="rgb(255,204,200)" stroke="rgb(255,204,200)" stroke-width="1" opacity="1" d="M 149.5 188 L 152 188.5 L 149.5 189 L 149.5 188 Z "></path><path fill="rgb(255,204,200)" stroke="rgb(255,204,200)" stroke-width="1" opacity="1" d="M 360.5 188 L 363 188.5 L 360.5 189 L 360.5 188 Z "></path><path fill="rgb(255,204,200)" stroke="rgb(255,204,200)" stroke-width="1" opacity="1" d="M 155.5 189 L 158 189.5 L 155.5 190 L 155.5 189 Z "></path><path fill="rgb(255,204,200)" stroke="rgb(255,204,200)" stroke-width="1" opacity="1" d="M 349.5 190 L 352 190.5 L 349.5 191 L 349.5 190 Z "></path><path fill="rgb(255,204,200)" stroke="rgb(255,204,200)" stroke-width="1" opacity="1" d="M 166.5 191 L 169 191.5 L 166.5 192 L 166.5 191 Z "></path><path fill="rgb(255,204,200)" stroke="rgb(255,204,200)" stroke-width="1" opacity="1" d="M 338.5 192 L 341 192.5 L 338.5 193 L 338.5 192 Z "></path><path fill="rgb(255,204,200)" stroke="rgb(255,204,200)" stroke-width="1" opacity="1" d="M 177.5 193 L 180 193.5 L 177.5 194 L 177.5 193 Z "></path><path fill="rgb(255,204,200)" stroke="rgb(255,204,200)" stroke-width="1" opacity="1" d="M 332.5 193 L 335 193.5 L 332.5 194 L 332.5 193 Z "></path><path fill="rgb(255,204,200)" stroke="rgb(255,204,200)" stroke-width="1" opacity="1" d="M 131.5 194 L 132 210.5 L 131 210.5 L 131.5 194 Z "></path><path fill="rgb(255,204,200)" stroke="rgb(255,204,200)" stroke-width="1" opacity="1" d="M 133.5 194 L 136 194.5 L 133.5 195 L 133.5 194 Z "></path><path fill="rgb(255,204,200)" stroke="rgb(255,204,200)" stroke-width="1" opacity="1" d="M 182.5 194 L 185 194.5 L 182.5 195 L 182.5 194 Z "></path><path fill="rgb(255,204,200)" stroke="rgb(255,204,200)" stroke-width="1" opacity="1" d="M 327.5 194 L 330 194.5 L 327.5 195 L 327.5 194 Z "></path><path fill="rgb(255,204,200)" stroke="rgb(255,204,200)" stroke-width="1" opacity="1" d="M 139.5 195 L 142 195.5 L 139.5 196 L 139.5 195 Z "></path><path fill="rgb(255,204,200)" stroke="rgb(255,204,200)" stroke-width="1" opacity="1" d="M 188.5 195 L 191 195.5 L 188.5 196 L 188.5 195 Z "></path><path fill="rgb(255,204,200)" stroke="rgb(255,204,200)" stroke-width="1" opacity="1" d="M 321.5 195 L 324 195.5 L 321.5 196 L 321.5 195 Z "></path><path fill="rgb(255,204,200)" stroke="rgb(255,204,200)" stroke-width="1" opacity="1" d="M 370.5 195 L 373 195.5 L 370.5 196 L 370.5 195 Z "></path><path fill="rgb(255,204,200)" stroke="rgb(255,204,200)" stroke-width="1" opacity="1" d="M 380.5 195 L 381 210.5 L 380 210.5 L 380.5 195 Z "></path><path fill="rgb(255,204,200)" stroke="rgb(255,204,200)" stroke-width="1" opacity="1" d="M 194.5 196 L 197 196.5 L 194.5 197 L 194.5 196 Z "></path><path fill="rgb(255,204,200)" stroke="rgb(255,204,200)" stroke-width="1" opacity="1" d="M 316.5 196 L 319 196.5 L 316.5 197 L 316.5 196 Z "></path><path fill="rgb(255,204,200)" stroke="rgb(255,204,200)" stroke-width="1" opacity="1" d="M 365.5 196 L 368 196.5 L 365.5 197 L 365.5 196 Z "></path><path fill="rgb(255,204,200)" stroke="rgb(255,204,200)" stroke-width="1" opacity="1" d="M 150.5 197 L 153 197.5 L 150.5 198 L 150.5 197 Z "></path><path fill="rgb(255,204,200)" stroke="rgb(255,204,200)" stroke-width="1" opacity="1" d="M 199.5 197 L 202 197.5 L 199.5 198 L 199.5 197 Z "></path><path fill="rgb(255,204,200)" stroke="rgb(255,204,200)" stroke-width="1" opacity="1" d="M 310.5 197 L 313 197.5 L 310.5 198 L 310.5 197 Z "></path><path fill="rgb(255,204,200)" stroke="rgb(255,204,200)" stroke-width="1" opacity="1" d="M 359.5 197 L 362 197.5 L 359.5 198 L 359.5 197 Z "></path><path fill="rgb(255,204,200)" stroke="rgb(255,204,200)" stroke-width="1" opacity="1" d="M 205.5 198 L 208 198.5 L 205.5 199 L 205.5 198 Z "></path><path fill="rgb(255,204,200)" stroke="rgb(255,204,200)" stroke-width="1" opacity="1" d="M 354.5 198 L 357 198.5 L 354.5 199 L 354.5 198 Z "></path><path fill="rgb(255,204,200)" stroke="rgb(255,204,200)" stroke-width="1" opacity="1" d="M 161.5 199 L 164 199.5 L 161.5 200 L 161.5 199 Z "></path><path fill="rgb(255,204,200)" stroke="rgb(255,204,200)" stroke-width="1" opacity="1" d="M 210.5 199 L 213 199.5 L 210.5 200 L 210.5 199 Z "></path><path fill="rgb(255,204,200)" stroke="rgb(255,204,200)" stroke-width="1" opacity="1" d="M 299.5 199 L 302 199.5 L 299.5 200 L 299.5 199 Z "></path><path fill="rgb(255,204,200)" stroke="rgb(255,204,200)" stroke-width="1" opacity="1" d="M 348.5 199 L 351 199.5 L 348.5 200 L 348.5 199 Z "></path><path fill="rgb(255,204,200)" stroke="rgb(255,204,200)" stroke-width="1" opacity="1" d="M 166.5 200 L 169 200.5 L 166.5 201 L 166.5 200 Z "></path><path fill="rgb(255,204,200)" stroke="rgb(255,204,200)" stroke-width="1" opacity="1" d="M 172.5 201 L 175 201.5 L 172.5 202 L 172.5 201 Z "></path><path fill="rgb(255,204,200)" stroke="rgb(255,204,200)" stroke-width="1" opacity="1" d="M 337.5 201 L 340 201.5 L 337.5 202 L 337.5 201 Z "></path><path fill="rgb(255,204,200)" stroke="rgb(255,204,200)" stroke-width="1" opacity="1" d="M 177.5 202 L 180 202.5 L 177.5 203 L 177.5 202 Z "></path><path fill="rgb(255,204,200)" stroke="rgb(255,204,200)" stroke-width="1" opacity="1" d="M 183.5 203 L 186 203.5 L 183.5 204 L 183.5 203 Z "></path><path fill="rgb(255,204,200)" stroke="rgb(255,204,200)" stroke-width="1" opacity="1" d="M 326.5 203 L 329 203.5 L 326.5 204 L 326.5 203 Z "></path><path fill="rgb(255,204,200)" stroke="rgb(255,204,200)" stroke-width="1" opacity="1" d="M 194.5 205 L 197 205.5 L 194.5 206 L 194.5 205 Z "></path><path fill="rgb(255,204,200)" stroke="rgb(255,204,200)" stroke-width="1" opacity="1" d="M 315.5 205 L 318 205.5 L 315.5 206 L 315.5 205 Z "></path><path fill="rgb(255,204,200)" stroke="rgb(255,204,200)" stroke-width="1" opacity="1" d="M 205.5 207 L 208 207.5 L 205.5 208 L 205.5 207 Z "></path><path fill="rgb(255,204,200)" stroke="rgb(255,204,200)" stroke-width="1" opacity="1" d="M 304.5 207 L 307 207.5 L 304.5 208 L 304.5 207 Z "></path><path fill="rgb(255,204,200)" stroke="rgb(255,204,200)" stroke-width="1" opacity="1" d="M 133.5 211 L 136 211.5 L 133.5 212 L 133.5 211 Z "></path><path fill="rgb(255,204,200)" stroke="rgb(255,204,200)" stroke-width="1" opacity="1" d="M 375.5 211 L 378 211.5 L 375.5 212 L 375.5 211 Z "></path><path fill="rgb(255,204,200)" stroke="rgb(255,204,200)" stroke-width="1" opacity="1" d="M 95.5 212 L 94.5 214 L 95.5 212 Z "></path><path fill="rgb(255,204,200)" stroke="rgb(255,204,200)" stroke-width="1" opacity="1" d="M 416.5 212 L 417.5 214 L 416.5 212 Z "></path><path fill="rgb(255,204,200)" stroke="rgb(255,204,200)" stroke-width="1" opacity="1" d="M 142.5 214 L 146.5 219 L 142.5 214 Z "></path><path fill="rgb(255,204,200)" stroke="rgb(255,204,200)" stroke-width="1" opacity="1" d="M 369.5 214 L 365.5 219 L 369.5 214 Z "></path><path fill="rgb(255,204,200)" stroke="rgb(255,204,200)" stroke-width="1" opacity="1" d="M 92.5 216 L 93 221.5 L 92 221.5 L 92.5 216 Z "></path><path fill="rgb(255,204,200)" stroke="rgb(255,204,200)" stroke-width="1" opacity="1" d="M 419.5 216 L 420 223.5 L 419 223.5 L 419.5 216 Z "></path><path fill="rgb(255,204,200)" stroke="rgb(255,204,200)" stroke-width="1" opacity="1" d="M 137.5 221 L 138.5 223 L 137.5 221 Z "></path><path fill="rgb(255,204,200)" stroke="rgb(255,204,200)" stroke-width="1" opacity="1" d="M 374.5 221 L 372.5 224 L 374.5 221 Z "></path><path fill="rgb(255,204,200)" stroke="rgb(255,204,200)" stroke-width="1" opacity="1" d="M 362.5 225 L 363 231.5 L 362 231.5 L 362.5 225 Z "></path><path fill="rgb(255,204,200)" stroke="rgb(255,204,200)" stroke-width="1" opacity="1" d="M 140.5 226 L 141 230.5 L 140 230.5 L 140.5 226 Z "></path><path fill="rgb(255,204,200)" stroke="rgb(255,204,200)" stroke-width="1" opacity="1" d="M 149.5 226 L 150 230.5 L 149 230.5 L 149.5 226 Z "></path><path fill="rgb(255,204,200)" stroke="rgb(255,204,200)" stroke-width="1" opacity="1" d="M 371.5 226 L 372 230.5 L 371 230.5 L 371.5 226 Z "></path><path fill="rgb(255,204,200)" stroke="rgb(255,204,200)" stroke-width="1" opacity="1" d="M 419.5 232 L 420 239.5 L 419 239.5 L 419.5 232 Z "></path><path fill="rgb(255,204,200)" stroke="rgb(255,204,200)" stroke-width="1" opacity="1" d="M 372.5 233 L 374.5 236 L 372.5 233 Z "></path><path fill="rgb(255,204,200)" stroke="rgb(255,204,200)" stroke-width="1" opacity="1" d="M 138.5 234 L 137.5 236 L 138.5 234 Z "></path><path fill="rgb(255,204,200)" stroke="rgb(255,204,200)" stroke-width="1" opacity="1" d="M 92.5 236 L 93 240.5 L 92 240.5 L 92.5 236 Z "></path><path fill="rgb(255,204,200)" stroke="rgb(255,204,200)" stroke-width="1" opacity="1" d="M 147.5 236 L 148.5 238 Q 145.7 238.7 147.5 236 Z "></path><path fill="rgb(255,204,200)" stroke="rgb(255,204,200)" stroke-width="1" opacity="1" d="M 364.5 236 L 365 238 L 363 237.5 L 364.5 236 Z "></path><path fill="rgb(255,204,200)" stroke="rgb(255,204,200)" stroke-width="1" opacity="1" d="M 155.5 240 L 158.5 244 L 155.5 240 Z "></path><path fill="rgb(255,204,200)" stroke="rgb(255,204,200)" stroke-width="1" opacity="1" d="M 356.5 240 L 352.5 245 L 356.5 240 Z "></path><path fill="rgb(255,204,200)" stroke="rgb(255,204,200)" stroke-width="1" opacity="1" d="M 92.5 243 L 93 245.5 L 92 245.5 L 92.5 243 Z "></path><path fill="rgb(255,204,200)" stroke="rgb(255,204,200)" stroke-width="1" opacity="1" d="M 419.5 245 L 420 252.5 L 419 252.5 L 419.5 245 Z "></path><path fill="rgb(255,204,200)" stroke="rgb(255,204,200)" stroke-width="1" opacity="1" d="M 151.5 249 L 153 251.5 L 152 251.5 L 151.5 249 Z "></path><path fill="rgb(255,204,200)" stroke="rgb(255,204,200)" stroke-width="1" opacity="1" d="M 360.5 249 L 359.5 251 L 360.5 249 Z "></path><path fill="rgb(255,204,200)" stroke="rgb(255,204,200)" stroke-width="1" opacity="1" d="M 358.5 253 L 359 256.5 L 358 256.5 L 358.5 253 Z "></path><path fill="rgb(255,204,200)" stroke="rgb(255,204,200)" stroke-width="1" opacity="1" d="M 151.5 260 L 150.5 262 L 151.5 260 Z "></path><path fill="rgb(255,204,200)" stroke="rgb(255,204,200)" stroke-width="1" opacity="1" d="M 360.5 260 L 361.5 262 L 360.5 260 Z "></path><path fill="rgb(255,204,200)" stroke="rgb(255,204,200)" stroke-width="1" opacity="1" d="M 92.5 261 L 93 265.5 L 92 265.5 L 92.5 261 Z "></path><path fill="rgb(255,204,200)" stroke="rgb(255,204,200)" stroke-width="1" opacity="1" d="M 160.5 261 L 161 262.5 L 159 263.5 L 160.5 261 Z "></path><path fill="rgb(255,204,200)" stroke="rgb(255,204,200)" stroke-width="1" opacity="1" d="M 419.5 261 L 420 265.5 L 419 265.5 L 419.5 261 Z "></path><path fill="rgb(255,204,200)" stroke="rgb(255,204,200)" stroke-width="1" opacity="1" d="M 351.5 262 L 352.5 264 L 351.5 262 Z "></path><path fill="rgb(255,204,200)" stroke="rgb(255,204,200)" stroke-width="1" opacity="1" d="M 101.5 263 L 147 263.5 L 101.5 264 L 101.5 263 Z "></path><path fill="rgb(255,204,200)" stroke="rgb(255,204,200)" stroke-width="1" opacity="1" d="M 365.5 263 L 411 263.5 L 365.5 264 L 365.5 263 Z "></path><path fill="rgb(255,204,200)" stroke="rgb(255,204,200)" stroke-width="1" opacity="1" d="M 158.5 265 L 155.5 269 L 158.5 265 Z "></path><path fill="rgb(255,204,200)" stroke="rgb(255,204,200)" stroke-width="1" opacity="1" d="M 353.5 265 L 356.5 269 L 353.5 265 Z "></path><path fill="rgb(255,204,200)" stroke="rgb(255,204,200)" stroke-width="1" opacity="1" d="M 92.5 269 L 93 271.5 L 92 271.5 L 92.5 269 Z "></path><path fill="rgb(255,204,200)" stroke="rgb(255,204,200)" stroke-width="1" opacity="1" d="M 419.5 271 L 420 278.5 L 419 278.5 L 419.5 271 Z "></path><path fill="rgb(255,204,200)" stroke="rgb(255,204,200)" stroke-width="1" opacity="1" d="M 133.5 273 L 135.5 276 L 133.5 273 Z "></path><path fill="rgb(255,204,200)" stroke="rgb(255,204,200)" stroke-width="1" opacity="1" d="M 378.5 273 L 376.5 276 L 378.5 273 Z "></path><path fill="rgb(255,204,200)" stroke="rgb(255,204,200)" stroke-width="1" opacity="1" d="M 145.5 276 L 146 278.5 L 145 278.5 L 145.5 276 Z "></path><path fill="rgb(255,204,200)" stroke="rgb(255,204,200)" stroke-width="1" opacity="1" d="M 366.5 276 L 367 278.5 L 366 278.5 L 366.5 276 Z "></path><path fill="rgb(255,204,200)" stroke="rgb(255,204,200)" stroke-width="1" opacity="1" d="M 145.5 281 L 146 284.5 L 145 284.5 L 145.5 281 Z "></path><path fill="rgb(255,204,200)" stroke="rgb(255,204,200)" stroke-width="1" opacity="1" d="M 366.5 282 L 367 284.5 L 366 284.5 L 366.5 282 Z "></path><path fill="rgb(255,204,200)" stroke="rgb(255,204,200)" stroke-width="1" opacity="1" d="M 136.5 283 L 137 284.5 L 135 285.5 L 136.5 283 Z "></path><path fill="rgb(255,204,200)" stroke="rgb(255,204,200)" stroke-width="1" opacity="1" d="M 92.5 287 L 93 292.5 L 92 292.5 L 92.5 287 Z "></path><path fill="rgb(255,204,200)" stroke="rgb(255,204,200)" stroke-width="1" opacity="1" d="M 419.5 287 L 420 291.5 L 419 291.5 L 419.5 287 Z "></path><path fill="rgb(255,204,200)" stroke="rgb(255,204,200)" stroke-width="1" opacity="1" d="M 101.5 289 L 130 289.5 L 101.5 290 L 101.5 289 Z "></path><path fill="rgb(255,204,200)" stroke="rgb(255,204,200)" stroke-width="1" opacity="1" d="M 381.5 289 L 411 289.5 L 381.5 290 L 381.5 289 Z "></path><path fill="rgb(255,204,200)" stroke="rgb(255,204,200)" stroke-width="1" opacity="1" d="M 141.5 292 L 140.5 294 L 141.5 292 Z "></path><path fill="rgb(255,204,200)" stroke="rgb(255,204,200)" stroke-width="1" opacity="1" d="M 370.5 292 L 372.5 295 L 370.5 292 Z "></path><path fill="rgb(255,204,200)" stroke="rgb(255,204,200)" stroke-width="1" opacity="1" d="M 92.5 295 L 93 297.5 L 92 297.5 L 92.5 295 Z "></path><path fill="rgb(255,204,200)" stroke="rgb(255,204,200)" stroke-width="1" opacity="1" d="M 419.5 296 L 420 302.5 L 419 302.5 L 419.5 296 Z "></path><path fill="rgb(255,204,200)" stroke="rgb(255,204,200)" stroke-width="1" opacity="1" d="M 122.5 298 L 125 298.5 L 122.5 299 L 122.5 298 Z "></path><path fill="rgb(255,204,200)" stroke="rgb(255,204,200)" stroke-width="1" opacity="1" d="M 388.5 298 L 394 298.5 L 388.5 299 L 388.5 298 Z "></path><path fill="rgb(255,204,200)" stroke="rgb(255,204,200)" stroke-width="1" opacity="1" d="M 383.5 302 L 383 303.5 L 382.5 305 L 382 303.5 L 383.5 302 Z "></path><path fill="rgb(255,204,200)" stroke="rgb(255,204,200)" stroke-width="1" opacity="1" d="M 138.5 303 L 139 309.5 L 138 309.5 L 138.5 303 Z "></path><path fill="rgb(255,204,200)" stroke="rgb(255,204,200)" stroke-width="1" opacity="1" d="M 373.5 303 L 374 310.5 L 373 310.5 L 373.5 303 Z "></path><path fill="rgb(255,204,200)" stroke="rgb(255,204,200)" stroke-width="1" opacity="1" d="M 129.5 304 L 130 309.5 L 129 309.5 L 129.5 304 Z "></path><path fill="rgb(255,204,200)" stroke="rgb(255,204,200)" stroke-width="1" opacity="1" d="M 382.5 309 L 384 311.5 L 382 310.5 L 382.5 309 Z "></path><path fill="rgb(255,204,200)" stroke="rgb(255,204,200)" stroke-width="1" opacity="1" d="M 419.5 311 L 420 318.5 L 419 318.5 L 419.5 311 Z "></path><path fill="rgb(255,204,200)" stroke="rgb(255,204,200)" stroke-width="1" opacity="1" d="M 92.5 312 L 93 318.5 L 92 318.5 L 92.5 312 Z "></path><path fill="rgb(255,204,200)" stroke="rgb(255,204,200)" stroke-width="1" opacity="1" d="M 101.5 315 L 124 315.5 L 101.5 316 L 101.5 315 Z "></path><path fill="rgb(255,204,200)" stroke="rgb(255,204,200)" stroke-width="1" opacity="1" d="M 136.5 315 L 135.5 317 L 136.5 315 Z "></path><path fill="rgb(255,204,200)" stroke="rgb(255,204,200)" stroke-width="1" opacity="1" d="M 388.5 315 L 411 315.5 L 388.5 316 L 388.5 315 Z "></path><path fill="rgb(255,204,200)" stroke="rgb(255,204,200)" stroke-width="1" opacity="1" d="M 134.5 318 L 132 321.5 L 131.5 325 L 131 321.5 L 134.5 318 Z "></path><path fill="rgb(255,204,200)" stroke="rgb(255,204,200)" stroke-width="1" opacity="1" d="M 377.5 318 Q 381.8 318.8 381 324.5 L 377.5 326 L 377.5 325 Q 381.7 326.3 380 321.5 L 377.5 318 Z "></path><path fill="rgb(255,204,200)" stroke="rgb(255,204,200)" stroke-width="1" opacity="1" d="M 416.5 322 L 415.5 324 L 416.5 322 Z "></path><path fill="rgb(255,204,200)" stroke="rgb(255,204,200)" stroke-width="1" opacity="1" d="M 106 324 L 123 324.5 L 107 325 L 106.5 339 L 106 324 Z "></path><path fill="rgb(255,204,200)" stroke="rgb(255,204,200)" stroke-width="1" opacity="1" d="M 389.5 324 L 406 324 L 406 337.5 L 405 337.5 L 405 325 L 389.5 325 L 389.5 324 Z "></path><path fill="rgb(255,204,200)" stroke="rgb(255,204,200)" stroke-width="1" opacity="1" d="M 133.5 325 L 136 325.5 L 133.5 326 L 133.5 325 Z "></path><path fill="rgb(255,204,200)" stroke="rgb(255,204,200)" stroke-width="1" opacity="1" d="M 138.5 326 L 141 326.5 L 138.5 327 L 138.5 326 Z "></path><path fill="rgb(255,204,200)" stroke="rgb(255,204,200)" stroke-width="1" opacity="1" d="M 371.5 326 L 374 326.5 L 371.5 327 L 371.5 326 Z "></path><path fill="rgb(255,204,200)" stroke="rgb(255,204,200)" stroke-width="1" opacity="1" d="M 144.5 327 L 147 327.5 L 144.5 328 L 144.5 327 Z "></path><path fill="rgb(255,204,200)" stroke="rgb(255,204,200)" stroke-width="1" opacity="1" d="M 366.5 327 L 369 327.5 L 366.5 328 L 366.5 327 Z "></path><path fill="rgb(255,204,200)" stroke="rgb(255,204,200)" stroke-width="1" opacity="1" d="M 150.5 328 L 153 328.5 L 150.5 329 L 150.5 328 Z "></path><path fill="rgb(255,204,200)" stroke="rgb(255,204,200)" stroke-width="1" opacity="1" d="M 360.5 328 L 363 328.5 L 360.5 329 L 360.5 328 Z "></path><path fill="rgb(255,204,200)" stroke="rgb(255,204,200)" stroke-width="1" opacity="1" d="M 155.5 329 L 158 329.5 L 155.5 330 L 155.5 329 Z "></path><path fill="rgb(255,204,200)" stroke="rgb(255,204,200)" stroke-width="1" opacity="1" d="M 355.5 329 L 358 329.5 L 355.5 330 L 355.5 329 Z "></path><path fill="rgb(255,204,200)" stroke="rgb(255,204,200)" stroke-width="1" opacity="1" d="M 161.5 330 L 164 330.5 L 161.5 331 L 161.5 330 Z "></path><path fill="rgb(255,204,200)" stroke="rgb(255,204,200)" stroke-width="1" opacity="1" d="M 349.5 330 L 352 330.5 L 349.5 331 L 349.5 330 Z "></path><path fill="rgb(255,204,200)" stroke="rgb(255,204,200)" stroke-width="1" opacity="1" d="M 166.5 331 L 169 331.5 L 166.5 332 L 166.5 331 Z "></path><path fill="rgb(255,204,200)" stroke="rgb(255,204,200)" stroke-width="1" opacity="1" d="M 344.5 331 L 347 331.5 L 344.5 332 L 344.5 331 Z "></path><path fill="rgb(255,204,200)" stroke="rgb(255,204,200)" stroke-width="1" opacity="1" d="M 338.5 332 L 341 332.5 L 338.5 333 L 338.5 332 Z "></path><path fill="rgb(255,204,200)" stroke="rgb(255,204,200)" stroke-width="1" opacity="1" d="M 128.5 333 L 131 333.5 L 128.5 334 L 128.5 333 Z "></path><path fill="rgb(255,204,200)" stroke="rgb(255,204,200)" stroke-width="1" opacity="1" d="M 177.5 333 L 180 333.5 L 177.5 334 L 177.5 333 Z "></path><path fill="rgb(255,204,200)" stroke="rgb(255,204,200)" stroke-width="1" opacity="1" d="M 381.5 333 L 384 333.5 L 381.5 334 L 381.5 333 Z "></path><path fill="rgb(255,204,200)" stroke="rgb(255,204,200)" stroke-width="1" opacity="1" d="M 134.5 334 L 137 334.5 L 134.5 335 L 134.5 334 Z "></path><path fill="rgb(255,204,200)" stroke="rgb(255,204,200)" stroke-width="1" opacity="1" d="M 327.5 334 L 330 334.5 L 327.5 335 L 327.5 334 Z "></path><path fill="rgb(255,204,200)" stroke="rgb(255,204,200)" stroke-width="1" opacity="1" d="M 376.5 334 L 379 334.5 L 376.5 335 L 376.5 334 Z "></path><path fill="rgb(255,204,200)" stroke="rgb(255,204,200)" stroke-width="1" opacity="1" d="M 188.5 335 L 191 335.5 L 188.5 336 L 188.5 335 Z "></path><path fill="rgb(255,204,200)" stroke="rgb(255,204,200)" stroke-width="1" opacity="1" d="M 322.5 335 L 325 335.5 L 322.5 336 L 322.5 335 Z "></path><path fill="rgb(255,204,200)" stroke="rgb(255,204,200)" stroke-width="1" opacity="1" d="M 145.5 336 L 148 336.5 L 145.5 337 L 145.5 336 Z "></path><path fill="rgb(255,204,200)" stroke="rgb(255,204,200)" stroke-width="1" opacity="1" d="M 193.5 336 L 196 336.5 L 193.5 337 L 193.5 336 Z "></path><path fill="rgb(255,204,200)" stroke="rgb(255,204,200)" stroke-width="1" opacity="1" d="M 316.5 336 L 319 336.5 L 316.5 337 L 316.5 336 Z "></path><path fill="rgb(255,204,200)" stroke="rgb(255,204,200)" stroke-width="1" opacity="1" d="M 365.5 336 L 368 336.5 L 365.5 337 L 365.5 336 Z "></path><path fill="rgb(255,204,200)" stroke="rgb(255,204,200)" stroke-width="1" opacity="1" d="M 150.5 337 L 153 337.5 L 150.5 338 L 150.5 337 Z "></path><path fill="rgb(255,204,200)" stroke="rgb(255,204,200)" stroke-width="1" opacity="1" d="M 156.5 338 L 159 338.5 L 156.5 339 L 156.5 338 Z "></path><path fill="rgb(255,204,200)" stroke="rgb(255,204,200)" stroke-width="1" opacity="1" d="M 204.5 338 L 207 338.5 L 204.5 339 L 204.5 338 Z "></path><path fill="rgb(255,204,200)" stroke="rgb(255,204,200)" stroke-width="1" opacity="1" d="M 305.5 338 L 308 338.5 L 305.5 339 L 305.5 338 Z "></path><path fill="rgb(255,204,200)" stroke="rgb(255,204,200)" stroke-width="1" opacity="1" d="M 354.5 338 L 357 338.5 L 354.5 339 L 354.5 338 Z "></path><path fill="rgb(255,204,200)" stroke="rgb(255,204,200)" stroke-width="1" opacity="1" d="M 349.5 339 L 352 339.5 L 349.5 340 L 349.5 339 Z "></path><path fill="rgb(255,204,200)" stroke="rgb(255,204,200)" stroke-width="1" opacity="1" d="M 107.5 340 L 112 345.5 L 107 341.5 L 107.5 340 Z "></path><path fill="rgb(255,204,200)" stroke="rgb(255,204,200)" stroke-width="1" opacity="1" d="M 167.5 340 L 170 340.5 L 167.5 341 L 167.5 340 Z "></path><path fill="rgb(255,204,200)" stroke="rgb(255,204,200)" stroke-width="1" opacity="1" d="M 343.5 340 L 346 340.5 L 343.5 341 L 343.5 340 Z "></path><path fill="rgb(255,204,200)" stroke="rgb(255,204,200)" stroke-width="1" opacity="1" d="M 338.5 341 L 341 341.5 L 338.5 342 L 338.5 341 Z "></path><path fill="rgb(255,204,200)" stroke="rgb(255,204,200)" stroke-width="1" opacity="1" d="M 178.5 342 L 181 342.5 L 178.5 343 L 178.5 342 Z "></path><path fill="rgb(255,204,200)" stroke="rgb(255,204,200)" stroke-width="1" opacity="1" d="M 332.5 342 L 335 342.5 L 332.5 343 L 332.5 342 Z "></path><path fill="rgb(255,204,200)" stroke="rgb(255,204,200)" stroke-width="1" opacity="1" d="M 403.5 342 L 400.5 346 L 403.5 342 Z "></path><path fill="rgb(255,204,200)" stroke="rgb(255,204,200)" stroke-width="1" opacity="1" d="M 184.5 343 L 187 343.5 L 184.5 344 L 184.5 343 Z "></path><path fill="rgb(255,204,200)" stroke="rgb(255,204,200)" stroke-width="1" opacity="1" d="M 327.5 343 L 330 343.5 L 327.5 344 L 327.5 343 Z "></path><path fill="rgb(255,204,200)" stroke="rgb(255,204,200)" stroke-width="1" opacity="1" d="M 189.5 344 L 192 344.5 L 189.5 345 L 189.5 344 Z "></path><path fill="rgb(255,204,200)" stroke="rgb(255,204,200)" stroke-width="1" opacity="1" d="M 321.5 344 L 324 344.5 L 321.5 345 L 321.5 344 Z "></path><path fill="rgb(255,204,200)" stroke="rgb(255,204,200)" stroke-width="1" opacity="1" d="M 195.5 345 L 198 345.5 L 195.5 346 L 195.5 345 Z "></path><path fill="rgb(255,204,200)" stroke="rgb(255,204,200)" stroke-width="1" opacity="1" d="M 316.5 345 L 319 345.5 L 316.5 346 L 316.5 345 Z "></path><path fill="rgb(255,204,200)" stroke="rgb(255,204,200)" stroke-width="1" opacity="1" d="M 100.5 346 L 101.5 348 L 100.5 346 Z "></path><path fill="rgb(255,204,200)" stroke="rgb(255,204,200)" stroke-width="1" opacity="1" d="M 200.5 346 L 203 346.5 L 200.5 347 L 200.5 346 Z "></path><path fill="rgb(255,204,200)" stroke="rgb(255,204,200)" stroke-width="1" opacity="1" d="M 310.5 346 L 313 346.5 L 310.5 347 L 310.5 346 Z "></path><path fill="rgb(255,204,200)" stroke="rgb(255,204,200)" stroke-width="1" opacity="1" d="M 411.5 346 L 410.5 348 L 411.5 346 Z "></path><path fill="rgb(255,204,200)" stroke="rgb(255,204,200)" stroke-width="1" opacity="1" d="M 206.5 347 L 209 347.5 L 206.5 348 L 206.5 347 Z "></path><path fill="rgb(255,204,200)" stroke="rgb(255,204,200)" stroke-width="1" opacity="1" d="M 304.5 347 L 307 347.5 L 304.5 348 L 304.5 347 Z "></path><path fill="rgb(255,204,200)" stroke="rgb(255,204,200)" stroke-width="1" opacity="1" d="M 118.5 348 L 121 348.5 L 118.5 349 L 118.5 348 Z "></path><path fill="rgb(255,204,200)" stroke="rgb(255,204,200)" stroke-width="1" opacity="1" d="M 211.5 348 L 214 348.5 L 211.5 349 L 211.5 348 Z "></path><path fill="rgb(255,204,200)" stroke="rgb(255,204,200)" stroke-width="1" opacity="1" d="M 298.5 348 L 301 348.5 L 298.5 349 L 298.5 348 Z "></path><path fill="rgb(255,204,200)" stroke="rgb(255,204,200)" stroke-width="1" opacity="1" d="M 124.5 349 L 127 349.5 L 124.5 350 L 124.5 349 Z "></path><path fill="rgb(255,204,200)" stroke="rgb(255,204,200)" stroke-width="1" opacity="1" d="M 385.5 349 L 388 349.5 L 385.5 350 L 385.5 349 Z "></path><path fill="rgb(255,204,200)" stroke="rgb(255,204,200)" stroke-width="1" opacity="1" d="M 380.5 350 L 383 350.5 L 380.5 351 L 380.5 350 Z "></path><path fill="rgb(255,204,200)" stroke="rgb(255,204,200)" stroke-width="1" opacity="1" d="M 135.5 351 L 138 351.5 L 135.5 352 L 135.5 351 Z "></path><path fill="rgb(255,204,200)" stroke="rgb(255,204,200)" stroke-width="1" opacity="1" d="M 374.5 351 L 377 351.5 L 374.5 352 L 374.5 351 Z "></path><path fill="rgb(255,204,200)" stroke="rgb(255,204,200)" stroke-width="1" opacity="1" d="M 406.5 351 L 405.5 353 L 406.5 351 Z "></path><path fill="rgb(255,204,200)" stroke="rgb(255,204,200)" stroke-width="1" opacity="1" d="M 106.5 352 L 107.5 354 L 106.5 352 Z "></path><path fill="rgb(255,204,200)" stroke="rgb(255,204,200)" stroke-width="1" opacity="1" d="M 140.5 352 L 143 352.5 L 140.5 353 L 140.5 352 Z "></path><path fill="rgb(255,204,200)" stroke="rgb(255,204,200)" stroke-width="1" opacity="1" d="M 146.5 353 L 149 353.5 L 146.5 354 L 146.5 353 Z "></path><path fill="rgb(255,204,200)" stroke="rgb(255,204,200)" stroke-width="1" opacity="1" d="M 363.5 353 L 366 353.5 L 363.5 354 L 363.5 353 Z "></path><path fill="rgb(255,204,200)" stroke="rgb(255,204,200)" stroke-width="1" opacity="1" d="M 357.5 354 L 360 354.5 L 357.5 355 L 357.5 354 Z "></path><path fill="rgb(255,204,200)" stroke="rgb(255,204,200)" stroke-width="1" opacity="1" d="M 157.5 355 L 160 355.5 L 157.5 356 L 157.5 355 Z "></path><path fill="rgb(255,204,200)" stroke="rgb(255,204,200)" stroke-width="1" opacity="1" d="M 352.5 355 L 355 355.5 L 352.5 356 L 352.5 355 Z "></path><path fill="rgb(255,204,200)" stroke="rgb(255,204,200)" stroke-width="1" opacity="1" d="M 346.5 356 L 349 356.5 L 346.5 357 L 346.5 356 Z "></path><path fill="rgb(255,204,200)" stroke="rgb(255,204,200)" stroke-width="1" opacity="1" d="M 119.5 357 L 122 357.5 L 119.5 358 L 119.5 357 Z "></path><path fill="rgb(255,204,200)" stroke="rgb(255,204,200)" stroke-width="1" opacity="1" d="M 168.5 357 L 171 357.5 L 168.5 358 L 168.5 357 Z "></path><path fill="rgb(255,204,200)" stroke="rgb(255,204,200)" stroke-width="1" opacity="1" d="M 341.5 357 L 344 357.5 L 341.5 358 L 341.5 357 Z "></path><path fill="rgb(255,204,200)" stroke="rgb(255,204,200)" stroke-width="1" opacity="1" d="M 390.5 357 L 393 357.5 L 390.5 358 L 390.5 357 Z "></path><path fill="rgb(255,204,200)" stroke="rgb(255,204,200)" stroke-width="1" opacity="1" d="M 125.5 358 L 128 358.5 L 125.5 359 L 125.5 358 Z "></path><path fill="rgb(255,204,200)" stroke="rgb(255,204,200)" stroke-width="1" opacity="1" d="M 174.5 358 L 177 358.5 L 174.5 359 L 174.5 358 Z "></path><path fill="rgb(255,204,200)" stroke="rgb(255,204,200)" stroke-width="1" opacity="1" d="M 335.5 358 L 338 358.5 L 335.5 359 L 335.5 358 Z "></path><path fill="rgb(255,204,200)" stroke="rgb(255,204,200)" stroke-width="1" opacity="1" d="M 130.5 359 L 133 359.5 L 130.5 360 L 130.5 359 Z "></path><path fill="rgb(255,204,200)" stroke="rgb(255,204,200)" stroke-width="1" opacity="1" d="M 330.5 359 L 333 359.5 L 330.5 360 L 330.5 359 Z "></path><path fill="rgb(255,204,200)" stroke="rgb(255,204,200)" stroke-width="1" opacity="1" d="M 379.5 359 L 382 359.5 L 379.5 360 L 379.5 359 Z "></path><path fill="rgb(255,204,200)" stroke="rgb(255,204,200)" stroke-width="1" opacity="1" d="M 185.5 360 L 188 360.5 L 185.5 361 L 185.5 360 Z "></path><path fill="rgb(255,204,200)" stroke="rgb(255,204,200)" stroke-width="1" opacity="1" d="M 324.5 360 L 327 360.5 L 324.5 361 L 324.5 360 Z "></path><path fill="rgb(255,204,200)" stroke="rgb(255,204,200)" stroke-width="1" opacity="1" d="M 141.5 361 L 144 361.5 L 141.5 362 L 141.5 361 Z "></path><path fill="rgb(255,204,200)" stroke="rgb(255,204,200)" stroke-width="1" opacity="1" d="M 368.5 361 L 371 361.5 L 368.5 362 L 368.5 361 Z "></path><path fill="rgb(255,204,200)" stroke="rgb(255,204,200)" stroke-width="1" opacity="1" d="M 196.5 362 L 199 362.5 L 196.5 363 L 196.5 362 Z "></path><path fill="rgb(255,204,200)" stroke="rgb(255,204,200)" stroke-width="1" opacity="1" d="M 313.5 362 L 316 362.5 L 313.5 363 L 313.5 362 Z "></path><path fill="rgb(255,204,200)" stroke="rgb(255,204,200)" stroke-width="1" opacity="1" d="M 152.5 363 L 155 363.5 L 152.5 364 L 152.5 363 Z "></path><path fill="rgb(255,204,200)" stroke="rgb(255,204,200)" stroke-width="1" opacity="1" d="M 202.5 363 L 205 363.5 L 202.5 364 L 202.5 363 Z "></path><path fill="rgb(255,204,200)" stroke="rgb(255,204,200)" stroke-width="1" opacity="1" d="M 357.5 363 L 360 363.5 L 357.5 364 L 357.5 363 Z "></path><path fill="rgb(255,204,200)" stroke="rgb(255,204,200)" stroke-width="1" opacity="1" d="M 207.5 364 L 210 364.5 L 207.5 365 L 207.5 364 Z "></path><path fill="rgb(255,204,200)" stroke="rgb(255,204,200)" stroke-width="1" opacity="1" d="M 302.5 364 L 305 364.5 L 302.5 365 L 302.5 364 Z "></path><path fill="rgb(255,204,200)" stroke="rgb(255,204,200)" stroke-width="1" opacity="1" d="M 163.5 365 L 166 365.5 L 163.5 366 L 163.5 365 Z "></path><path fill="rgb(255,204,200)" stroke="rgb(255,204,200)" stroke-width="1" opacity="1" d="M 213.5 365 L 216 365.5 L 213.5 366 L 213.5 365 Z "></path><path fill="rgb(255,204,200)" stroke="rgb(255,204,200)" stroke-width="1" opacity="1" d="M 346.5 365 L 349 365.5 L 346.5 366 L 346.5 365 Z "></path><path fill="rgb(255,204,200)" stroke="rgb(255,204,200)" stroke-width="1" opacity="1" d="M 218.5 366 L 221 366.5 L 218.5 367 L 218.5 366 Z "></path><path fill="rgb(255,204,200)" stroke="rgb(255,204,200)" stroke-width="1" opacity="1" d="M 291.5 366 L 294 366.5 L 291.5 367 L 291.5 366 Z "></path><path fill="rgb(255,204,200)" stroke="rgb(255,204,200)" stroke-width="1" opacity="1" d="M 174.5 367 L 177 367.5 L 174.5 368 L 174.5 367 Z "></path><path fill="rgb(255,204,200)" stroke="rgb(255,204,200)" stroke-width="1" opacity="1" d="M 224.5 367 L 227 367.5 L 224.5 368 L 224.5 367 Z "></path><path fill="rgb(255,204,200)" stroke="rgb(255,204,200)" stroke-width="1" opacity="1" d="M 285.5 367 L 288 367.5 L 285.5 368 L 285.5 367 Z "></path><path fill="rgb(255,204,200)" stroke="rgb(255,204,200)" stroke-width="1" opacity="1" d="M 335.5 367 L 338 367.5 L 335.5 368 L 335.5 367 Z "></path><path fill="rgb(255,204,200)" stroke="rgb(255,204,200)" stroke-width="1" opacity="1" d="M 179.5 368 L 182 368.5 L 179.5 369 L 179.5 368 Z "></path><path fill="rgb(255,204,200)" stroke="rgb(255,204,200)" stroke-width="1" opacity="1" d="M 229.5 368 L 232 368.5 L 229.5 369 L 229.5 368 Z "></path><path fill="rgb(255,204,200)" stroke="rgb(255,204,200)" stroke-width="1" opacity="1" d="M 280.5 368 L 283 368.5 L 280.5 369 L 280.5 368 Z "></path><path fill="rgb(255,204,200)" stroke="rgb(255,204,200)" stroke-width="1" opacity="1" d="M 329.5 368 L 332 368.5 L 329.5 369 L 329.5 368 Z "></path><path fill="rgb(255,204,200)" stroke="rgb(255,204,200)" stroke-width="1" opacity="1" d="M 185.5 369 L 188 369.5 L 185.5 370 L 185.5 369 Z "></path><path fill="rgb(255,204,200)" stroke="rgb(255,204,200)" stroke-width="1" opacity="1" d="M 324.5 369 L 327 369.5 L 324.5 370 L 324.5 369 Z "></path><path fill="rgb(255,204,200)" stroke="rgb(255,204,200)" stroke-width="1" opacity="1" d="M 196.5 371 L 199 371.5 L 196.5 372 L 196.5 371 Z "></path><path fill="rgb(255,204,200)" stroke="rgb(255,204,200)" stroke-width="1" opacity="1" d="M 313.5 371 L 316 371.5 L 313.5 372 L 313.5 371 Z "></path><path fill="rgb(255,204,200)" stroke="rgb(255,204,200)" stroke-width="1" opacity="1" d="M 207.5 373 L 210 373.5 L 207.5 374 L 207.5 373 Z "></path><path fill="rgb(255,204,200)" stroke="rgb(255,204,200)" stroke-width="1" opacity="1" d="M 302.5 373 L 305 373.5 L 302.5 374 L 302.5 373 Z "></path><path fill="rgb(255,204,200)" stroke="rgb(255,204,200)" stroke-width="1" opacity="1" d="M 296.5 374 L 299 374.5 L 296.5 375 L 296.5 374 Z "></path><path fill="rgb(255,204,200)" stroke="rgb(255,204,200)" stroke-width="1" opacity="1" d="M 218.5 375 L 221 375.5 L 218.5 376 L 218.5 375 Z "></path><path fill="rgb(255,204,200)" stroke="rgb(255,204,200)" stroke-width="1" opacity="1" d="M 290.5 375 L 293 375.5 L 290.5 376 L 290.5 375 Z "></path><path fill="rgb(255,204,200)" stroke="rgb(255,204,200)" stroke-width="1" opacity="1" d="M 224.5 376 L 227 376.5 L 224.5 377 L 224.5 376 Z "></path><path fill="rgb(255,204,200)" stroke="rgb(255,204,200)" stroke-width="1" opacity="1" d="M 285.5 376 L 288 376.5 L 285.5 377 L 285.5 376 Z "></path><path fill="rgb(255,204,200)" stroke="rgb(255,204,200)" stroke-width="1" opacity="1" d="M 230.5 377 L 233 377.5 L 230.5 378 L 230.5 377 Z "></path><path fill="rgb(255,204,200)" stroke="rgb(255,204,200)" stroke-width="1" opacity="1" d="M 279.5 377 L 282 377.5 L 279.5 378 L 279.5 377 Z "></path><path fill="rgb(255,204,200)" stroke="rgb(255,204,200)" stroke-width="1" opacity="1" d="M 235.5 378 L 276 378.5 L 235.5 379 L 235.5 378 Z "></path><path fill="rgb(255,254,254)" stroke="rgb(255,254,254)" stroke-width="1" opacity="1" d="M 124.5 134 L 123.5 136 L 124.5 134 Z "></path><path fill="rgb(255,254,254)" stroke="rgb(255,254,254)" stroke-width="1" opacity="1" d="M 381.5 142 L 382 159.5 L 381 159.5 L 381.5 142 Z "></path><path fill="rgb(255,254,254)" stroke="rgb(255,254,254)" stroke-width="1" opacity="1" d="M 240.5 159 L 241.5 161 L 240.5 159 Z "></path><path fill="rgb(255,254,254)" stroke="rgb(255,254,254)" stroke-width="1" opacity="1" d="M 105.5 161 L 103.5 164 L 105.5 161 Z "></path><path fill="rgb(255,254,254)" stroke="rgb(255,254,254)" stroke-width="1" opacity="1" d="M 406.5 161 L 408.5 164 L 406.5 161 Z "></path><path fill="rgb(255,254,254)" stroke="rgb(255,254,254)" stroke-width="1" opacity="1" d="M 266.5 163 L 259.5 171 L 266.5 163 Z "></path><path fill="rgb(255,254,254)" stroke="rgb(255,254,254)" stroke-width="1" opacity="1" d="M 246.5 164 L 250.5 169 L 246.5 164 Z "></path><path fill="rgb(255,254,254)" stroke="rgb(255,254,254)" stroke-width="1" opacity="1" d="M 236.5 166 L 237.5 168 L 236.5 166 Z "></path><path fill="rgb(255,254,254)" stroke="rgb(255,254,254)" stroke-width="1" opacity="1" d="M 275.5 166 L 274.5 168 L 275.5 166 Z "></path><path fill="rgb(255,254,254)" stroke="rgb(255,254,254)" stroke-width="1" opacity="1" d="M 257.5 173 L 256.5 175 L 257.5 173 Z "></path><path fill="rgb(255,254,254)" stroke="rgb(255,254,254)" stroke-width="1" opacity="1" d="M 233.5 186 L 234 368.5 L 233 368.5 L 233.5 186 Z "></path><path fill="rgb(255,254,254)" stroke="rgb(255,254,254)" stroke-width="1" opacity="1" d="M 216.5 204 L 217 344.5 L 216 344.5 L 216.5 204 Z "></path><path fill="rgb(255,254,254)" stroke="rgb(255,254,254)" stroke-width="1" opacity="1" d="M 295.5 204 L 296 343.5 L 295 343.5 L 295.5 204 Z "></path><path fill="rgb(255,254,254)" stroke="rgb(255,254,254)" stroke-width="1" opacity="1" d="M 303.5 207 L 304 338.5 L 303 338.5 L 303.5 207 Z "></path><path fill="rgb(255,254,254)" stroke="rgb(255,254,254)" stroke-width="1" opacity="1" d="M 92.5 222 L 93 227.5 L 92 227.5 L 92.5 222 Z "></path><path fill="rgb(255,254,254)" stroke="rgb(255,254,254)" stroke-width="1" opacity="1" d="M 419.5 224 L 420 231.5 L 419 231.5 L 419.5 224 Z "></path><path fill="rgb(255,254,254)" stroke="rgb(255,254,254)" stroke-width="1" opacity="1" d="M 92.5 233 L 93 235.5 L 92 235.5 L 92.5 233 Z "></path><path fill="rgb(255,254,254)" stroke="rgb(255,254,254)" stroke-width="1" opacity="1" d="M 101.5 237 L 133 237.5 L 101.5 238 L 101.5 237 Z "></path><path fill="rgb(255,254,254)" stroke="rgb(255,254,254)" stroke-width="1" opacity="1" d="M 379.5 237 L 411 237.5 L 379.5 238 L 379.5 237 Z "></path><path fill="rgb(255,254,254)" stroke="rgb(255,254,254)" stroke-width="1" opacity="1" d="M 150.5 247 L 151.5 249 L 150.5 247 Z "></path><path fill="rgb(255,254,254)" stroke="rgb(255,254,254)" stroke-width="1" opacity="1" d="M 361.5 247 L 360.5 249 L 361.5 247 Z "></path><path fill="rgb(255,254,254)" stroke="rgb(255,254,254)" stroke-width="1" opacity="1" d="M 153.5 253 L 154 255.5 L 153 255.5 L 153.5 253 Z "></path><path fill="rgb(255,254,254)" stroke="rgb(255,254,254)" stroke-width="1" opacity="1" d="M 419.5 253 L 420 260.5 L 419 260.5 L 419.5 253 Z "></path><path fill="rgb(255,254,254)" stroke="rgb(255,254,254)" stroke-width="1" opacity="1" d="M 366.5 279 L 367 281.5 L 366 281.5 L 366.5 279 Z "></path><path fill="rgb(255,254,254)" stroke="rgb(255,254,254)" stroke-width="1" opacity="1" d="M 419.5 279 L 420 286.5 L 419 286.5 L 419.5 279 Z "></path><path fill="rgb(255,254,254)" stroke="rgb(255,254,254)" stroke-width="1" opacity="1" d="M 135.5 286 L 134.5 288 L 135.5 286 Z "></path><path fill="rgb(255,254,254)" stroke="rgb(255,254,254)" stroke-width="1" opacity="1" d="M 142.5 290 L 141.5 292 L 142.5 290 Z "></path><path fill="rgb(255,254,254)" stroke="rgb(255,254,254)" stroke-width="1" opacity="1" d="M 139.5 293 L 138.5 295 L 139.5 293 Z "></path><path fill="rgb(255,254,254)" stroke="rgb(255,254,254)" stroke-width="1" opacity="1" d="M 92.5 298 L 93 300.5 L 92 300.5 L 92.5 298 Z "></path><path fill="rgb(255,254,254)" stroke="rgb(255,254,254)" stroke-width="1" opacity="1" d="M 385.5 299 L 383.5 302 L 385.5 299 Z "></path><path fill="rgb(255,254,254)" stroke="rgb(255,254,254)" stroke-width="1" opacity="1" d="M 419.5 303 L 420 310.5 L 419 310.5 L 419.5 303 Z "></path><path fill="rgb(255,254,254)" stroke="rgb(255,254,254)" stroke-width="1" opacity="1" d="M 128.5 312 L 126.5 315 L 128.5 312 Z "></path><path fill="rgb(255,254,254)" stroke="rgb(255,254,254)" stroke-width="1" opacity="1" d="M 94.5 321 L 95.5 323 L 94.5 321 Z "></path><path fill="rgb(255,254,254)" stroke="rgb(255,254,254)" stroke-width="1" opacity="1" d="M 215.5 346 L 214.5 348 L 215.5 346 Z "></path><path fill="rgb(255,254,254)" stroke="rgb(255,254,254)" stroke-width="1" opacity="1" d="M 296.5 346 L 297.5 348 L 296.5 346 Z "></path><path fill="rgb(255,254,254)" stroke="rgb(255,254,254)" stroke-width="1" opacity="1" d="M 102.5 348 L 105.5 352 L 102.5 348 Z "></path><path fill="rgb(255,254,254)" stroke="rgb(255,254,254)" stroke-width="1" opacity="1" d="M 409.5 348 L 407.5 351 L 409.5 348 Z "></path><path fill="rgb(255,255,255)" stroke="rgb(255,255,255)" stroke-width="1" opacity="1" d="M 125.5 134 L 157.5 134 L 158.5 135 L 168.5 135 L 169.5 136 L 192.5 139 L 207.5 143 L 232.5 154 Q 245 161.5 254 172.5 L 255.5 175 L 258 173.5 L 270.5 160 L 293.5 147 L 319.5 139 L 342.5 136 L 343.5 135 L 353.5 135 L 354.5 134 L 386.5 134 L 390 138.5 L 390 158 L 396.5 157 Q 405.8 158.8 410 165.5 L 414 175.5 L 414 211.5 L 415.5 213 L 418 214.5 L 419 216.5 L 419 240.5 L 418 242.5 L 419 243.5 L 419 266.5 L 418 268.5 L 419 269.5 L 419 292.5 L 418 294.5 L 419 295.5 L 419 319.5 L 414 323 L 413 342.5 L 404.5 353 L 394.5 357 L 389.5 357 L 383.5 359 L 378.5 359 L 372.5 361 L 367.5 361 L 361.5 363 L 356.5 363 L 350.5 365 L 345.5 365 L 339.5 367 L 334.5 367 L 277.5 378 L 233.5 378 L 227.5 376 L 216.5 375 L 210.5 373 L 205.5 373 L 199.5 371 L 194.5 371 L 188.5 369 L 183.5 369 L 122.5 357 L 117.5 357 Q 106.4 354.6 101 346.5 L 98 339.5 L 98 323 L 93 319.5 L 92 301.5 L 93 300.5 L 93 285.5 L 92 284.5 L 92 273.5 L 93 272.5 L 93 259.5 L 92 258.5 L 92 247.5 L 93 246.5 L 93 233.5 L 92 228.5 L 93 227.5 L 93 216.5 L 95.5 213 L 98 211.5 L 98 175.5 Q 99.7 164.7 107.5 160 L 116.5 157 L 122 158 L 122 137.5 L 125.5 134 Z M 130 142 L 130 160 L 235 179 L 248 179 L 248 178 Q 233 159 207 151 L 182 145 L 168 144 L 167 143 L 130 142 Z M 357 142 L 356 143 L 346 143 L 345 144 L 331 145 L 306 151 Q 288 156 276 166 L 264 178 L 264 179 L 278 179 L 311 172 L 316 172 L 322 170 L 327 170 L 333 168 L 338 168 L 344 166 L 382 160 L 382 142 L 357 142 Z M 117 165 L 113 166 L 106 175 L 106 211 L 123 211 L 123 189 L 126 185 L 132 185 L 149 189 L 204 198 L 214 200 L 216 203 L 216 346 L 214 348 L 126 332 L 123 329 Q 123 324 123 324 L 106 324 L 106 340 L 107 342 Q 110 348 119 349 L 174 359 L 179 359 L 185 361 L 190 361 L 196 363 L 201 363 L 207 365 L 212 365 L 218 367 L 223 367 L 229 369 Q 234 370 234 369 L 234 186 L 117 165 Z M 396 165 L 339 176 L 334 176 L 328 178 L 323 178 L 317 180 L 289 184 L 283 186 Q 278 185 278 187 L 278 369 L 329 360 L 334 360 L 384 350 L 389 350 L 400 347 Q 405 345 406 339 L 406 324 L 389 324 L 388 331 L 385 333 L 370 336 L 365 336 L 315 346 L 299 348 L 296 346 L 296 203 L 299 200 L 309 198 L 342 193 L 381 185 L 387 185 L 389 189 L 389 211 L 406 211 L 406 176 L 404 171 L 400 166 L 396 165 Z M 242 187 L 242 370 L 243 370 L 270 370 L 270 188 L 270 187 L 242 187 Z M 131 194 L 131 211 L 143 215 L 149 225 Q 150 234 147 238 L 156 241 Q 161 245 162 253 Q 162 260 159 265 Q 154 272 143 273 L 145 276 L 145 286 L 141 293 L 135 296 L 138 303 L 138 312 L 133 320 Q 129 319 131 325 L 138 327 L 182 334 L 204 339 Q 208 339 208 339 L 208 207 L 131 194 Z M 376 194 L 309 207 Q 303 206 303 208 L 303 339 L 381 326 L 381 321 L 380 320 L 374 312 Q 373 300 377 296 L 373 294 L 367 286 Q 365 276 369 273 L 362 271 L 357 268 Q 351 264 350 257 L 350 252 L 353 245 Q 357 238 365 238 L 363 233 Q 362 223 366 219 L 373 213 L 380 212 L 381 211 L 381 195 Q 381 193 376 194 Z M 101 220 L 101 238 L 133 238 L 137 237 L 141 232 L 140 224 L 137 220 L 101 220 Z M 376 220 L 371 226 L 372 234 L 376 237 L 380 238 L 411 238 L 411 220 L 376 220 Z M 101 246 L 101 264 L 148 264 L 150 263 L 153 260 L 154 256 L 152 249 L 149 246 L 101 246 Z M 364 246 L 362 247 L 358 253 L 359 260 L 365 264 L 411 264 L 411 246 L 364 246 Z M 101 272 L 101 290 L 131 290 L 135 288 Q 139 285 137 277 L 132 272 L 101 272 Z M 381 272 L 375 277 Q 374 283 376 287 L 381 290 L 411 290 L 411 272 L 381 272 Z M 101 298 L 101 316 L 125 316 L 127 315 L 130 311 L 129 302 L 125 298 L 101 298 Z M 389 298 L 386 299 L 382 304 L 383 313 L 388 316 L 411 316 L 411 298 L 389 298 Z "></path></svg>